<?xml version="1.0"?>
<svg xmlns="http://www.w3.org/2000/svg" xmlns:xlink="http://www.w3.org/1999/xlink" xmlns:svgjs="http://svgjs.com/svgjs" version="1.1" width="512" height="512" x="0" y="0" viewBox="0 0 512 512" style="enable-background:new 0 0 512 512" xml:space="preserve" class=""><g>
<circle xmlns="http://www.w3.org/2000/svg" style="" cx="256" cy="256" r="256" fill="#66da98" data-original="#39375e" class=""/>
<path xmlns="http://www.w3.org/2000/svg" style="" d="M467.83,139.6v260.19c-15.02,22.08-33.4,41.7-54.41,58.1H98.58c-21.01-16.4-39.39-36.02-54.41-58.1  V139.6c0-15.31,8.8-28.56,21.61-34.98c5.26-2.63,11.19-4.11,17.47-4.11h345.5C450.33,100.51,467.83,118.01,467.83,139.6z" fill="#fffbeb" data-original="#fffbeb" class=""/>
<path xmlns="http://www.w3.org/2000/svg" style="" d="M467.83,301.9v97.89c-15.02,22.08-33.4,41.7-54.41,58.1H311.84l10.42-29.54l14.08-39.91l16.93-47.99  l7.38-2.48l67.2-22.62L467.83,301.9z" fill="#d8e0c9" data-original="#d8e0c9" class=""/>
<path xmlns="http://www.w3.org/2000/svg" style="" d="M467.834,159.056H44.166V81.059c0-21.588,17.5-39.088,39.088-39.088h345.491  c21.588,0,39.088,17.5,39.088,39.088v77.997H467.834z" fill="#dd544c" data-original="#dd544c" class=""/>
<path xmlns="http://www.w3.org/2000/svg" style="" d="M463.71,63.586c-6.416-12.814-19.659-21.616-34.964-21.616h-25.759h-54.76h-206.07h-54.76h-4.143  c-21.588,0-39.088,17.501-39.088,39.088v77.997h21.616V82.77c0-10.595,8.589-19.184,19.184-19.184h2.432v40.169  c0,15.122,12.258,27.38,27.38,27.38l0,0c15.122,0,27.38-12.258,27.38-27.38V63.586h206.07v40.169c0,15.122,12.258,27.38,27.38,27.38  l0,0c15.121,0,27.38-12.258,27.38-27.38V63.586H463.71z" fill="#c63b38" data-original="#c63b38" class=""/>
<path xmlns="http://www.w3.org/2000/svg" style="" d="M125.585,131.135L125.585,131.135c-15.122,0-27.38-12.258-27.38-27.38V27.38  c0-15.122,12.258-27.38,27.38-27.38l0,0c15.121,0,27.38,12.258,27.38,27.38v76.376C152.965,118.877,140.707,131.135,125.585,131.135  z" fill="#f3d75c" data-original="#f3d75c" class=""/>
<path xmlns="http://www.w3.org/2000/svg" style="" d="M119.821,103.756V27.38c0-11.283,6.826-20.968,16.572-25.16C133.077,0.793,129.424,0,125.585,0l0,0  c-15.122,0-27.38,12.258-27.38,27.38v76.376c0,15.122,12.258,27.38,27.38,27.38l0,0c3.839,0,7.492-0.793,10.808-2.22  C126.647,124.724,119.821,115.038,119.821,103.756z" fill="#e8c63a" data-original="#e8c63a" class=""/>
<path xmlns="http://www.w3.org/2000/svg" style="" d="M386.415,131.135L386.415,131.135c-15.122,0-27.38-12.258-27.38-27.38V27.38  c0-15.122,12.258-27.38,27.38-27.38l0,0c15.121,0,27.38,12.258,27.38,27.38v76.376C413.795,118.877,401.536,131.135,386.415,131.135  z" fill="#f3d75c" data-original="#f3d75c" class=""/>
<path xmlns="http://www.w3.org/2000/svg" style="" d="M380.651,103.756V27.38c0-11.283,6.826-20.968,16.572-25.16C393.907,0.793,390.254,0,386.415,0l0,0  c-15.121,0-27.38,12.258-27.38,27.38v76.376c0,15.122,12.258,27.38,27.38,27.38l0,0c3.839,0,7.492-0.793,10.808-2.22  C387.477,124.724,380.651,115.038,380.651,103.756z" fill="#e8c63a" data-original="#e8c63a" class=""/>
<g xmlns="http://www.w3.org/2000/svg">
	<path style="" d="M145.76,252.544H91.72c-4.178,0-7.566-3.387-7.566-7.566v-54.039c0-4.178,3.387-7.566,7.566-7.566   h54.039c4.178,0,7.566,3.387,7.566,7.566v54.039C153.325,249.157,149.938,252.544,145.76,252.544z" fill="#d8e0c9" data-original="#d8e0c9" class=""/>
	<path style="" d="M237.266,252.544h-54.039c-4.178,0-7.566-3.387-7.566-7.566v-54.039   c0-4.178,3.387-7.566,7.566-7.566h54.039c4.178,0,7.566,3.387,7.566,7.566v54.039C244.832,249.157,241.445,252.544,237.266,252.544   z" fill="#d8e0c9" data-original="#d8e0c9" class=""/>
	<path style="" d="M328.773,252.544h-54.039c-4.178,0-7.566-3.387-7.566-7.566v-54.039   c0-4.178,3.387-7.566,7.566-7.566h54.039c4.178,0,7.565,3.387,7.565,7.566v54.039C336.338,249.157,332.951,252.544,328.773,252.544   z" fill="#d8e0c9" data-original="#d8e0c9" class=""/>
	<path style="" d="M420.28,252.544h-54.04c-4.178,0-7.566-3.387-7.566-7.566v-54.039c0-4.178,3.387-7.566,7.566-7.566   h54.039c4.178,0,7.565,3.387,7.565,7.566v54.039C427.845,249.157,424.458,252.544,420.28,252.544z" fill="#d8e0c9" data-original="#d8e0c9" class=""/>
	<path style="" d="M145.76,340.448H91.72c-4.178,0-7.566-3.387-7.566-7.566v-54.039c0-4.178,3.387-7.565,7.566-7.565   h54.039c4.178,0,7.566,3.387,7.566,7.565v54.039C153.325,337.061,149.938,340.448,145.76,340.448z" fill="#d8e0c9" data-original="#d8e0c9" class=""/>
	<path style="" d="M237.266,340.448h-54.039c-4.178,0-7.566-3.387-7.566-7.566v-54.039   c0-4.178,3.387-7.565,7.566-7.565h54.039c4.178,0,7.566,3.387,7.566,7.565v54.039C244.832,337.061,241.445,340.448,237.266,340.448   z" fill="#d8e0c9" data-original="#d8e0c9" class=""/>
	<path style="" d="M328.773,340.448h-54.039c-4.178,0-7.566-3.387-7.566-7.566v-54.039   c0-4.178,3.387-7.565,7.566-7.565h54.039c4.178,0,7.565,3.387,7.565,7.565v54.039C336.338,337.061,332.951,340.448,328.773,340.448   z" fill="#d8e0c9" data-original="#d8e0c9" class=""/>
	<path style="" d="M420.28,340.448h-54.04c-4.178,0-7.566-3.387-7.566-7.566v-54.039c0-4.178,3.387-7.565,7.566-7.565   h54.039c4.178,0,7.565,3.387,7.565,7.565v54.039C427.845,337.061,424.458,340.448,420.28,340.448z" fill="#d8e0c9" data-original="#d8e0c9" class=""/>
	<path style="" d="M145.76,428.352H91.72c-4.178,0-7.566-3.387-7.566-7.565v-54.039c0-4.178,3.387-7.566,7.566-7.566   h54.039c4.178,0,7.566,3.387,7.566,7.566v54.039C153.325,424.965,149.938,428.352,145.76,428.352z" fill="#d8e0c9" data-original="#d8e0c9" class=""/>
	<path style="" d="M237.266,428.352h-54.039c-4.178,0-7.566-3.387-7.566-7.565v-54.039   c0-4.178,3.387-7.566,7.566-7.566h54.039c4.178,0,7.566,3.387,7.566,7.566v54.039C244.832,424.965,241.445,428.352,237.266,428.352   z" fill="#d8e0c9" data-original="#d8e0c9" class=""/>
	<path style="" d="M328.773,428.352h-54.039c-4.178,0-7.566-3.387-7.566-7.565v-54.039   c0-4.178,3.387-7.566,7.566-7.566h54.039c4.178,0,7.565,3.387,7.565,7.566v54.039C336.338,424.965,332.951,428.352,328.773,428.352   z" fill="#d8e0c9" data-original="#d8e0c9" class=""/>
</g>
<g xmlns="http://www.w3.org/2000/svg">
	<path style="" d="M214.653,328.452L214.653,328.452c-1.989,0-3.897-0.79-5.303-2.196l-15.838-15.84   c-2.929-2.929-2.929-7.677,0-10.606s7.678-2.928,10.606,0.001l10.535,10.535l24.875-24.876c2.929-2.928,7.678-2.928,10.606,0   c2.929,2.93,2.929,7.678,0,10.607l-30.179,30.179C218.55,327.662,216.643,328.452,214.653,328.452z" fill="#dd544c" data-original="#dd544c" class=""/>
	<path style="" d="M397.667,240.548L397.667,240.548c-1.989,0-3.897-0.79-5.303-2.196l-15.838-15.84   c-2.929-2.929-2.929-7.677,0-10.606c2.929-2.928,7.678-2.929,10.606,0.001l10.535,10.535l24.875-24.876   c2.929-2.928,7.678-2.928,10.606,0c2.929,2.93,2.929,7.678,0,10.607l-30.179,30.179   C401.563,239.758,399.656,240.548,397.667,240.548z" fill="#dd544c" data-original="#dd544c" class=""/>
	<path style="" d="M123.147,328.452c-1.989,0-3.897-0.79-5.303-2.196l-15.839-15.839c-2.929-2.93-2.929-7.678,0-10.607   c2.929-2.928,7.678-2.928,10.606,0l10.536,10.536l24.875-24.876c2.929-2.928,7.678-2.928,10.606,0c2.929,2.93,2.929,7.678,0,10.607   l-30.178,30.179C127.044,327.662,125.136,328.452,123.147,328.452z" fill="#dd544c" data-original="#dd544c" class=""/>
</g>
<path xmlns="http://www.w3.org/2000/svg" style="" d="M311.841,457.893V340.988c0-21.588,17.5-39.088,39.088-39.088h116.905L311.841,457.893z" fill="#fffbeb" data-original="#fffbeb" class=""/>
<polygon xmlns="http://www.w3.org/2000/svg" style="" points="311.841,340.988 182.867,457.893 311.841,457.893 " fill="#d8e0c9" data-original="#d8e0c9" class=""/>
<g xmlns="http://www.w3.org/2000/svg">
	<path style="" d="M215.458,428.352h21.808c4.178,0,7.566-3.387,7.566-7.565v-19.06L215.458,428.352z" fill="#c7ceb6" data-original="#c7ceb6"/>
	<path style="" d="M311.841,359.181H291.77l-24.601,22.299v39.306c0,4.178,3.387,7.565,7.565,7.565h37.107V359.181z" fill="#c7ceb6" data-original="#c7ceb6"/>
</g>
<g xmlns="http://www.w3.org/2000/svg">
</g>
<g xmlns="http://www.w3.org/2000/svg">
</g>
<g xmlns="http://www.w3.org/2000/svg">
</g>
<g xmlns="http://www.w3.org/2000/svg">
</g>
<g xmlns="http://www.w3.org/2000/svg">
</g>
<g xmlns="http://www.w3.org/2000/svg">
</g>
<g xmlns="http://www.w3.org/2000/svg">
</g>
<g xmlns="http://www.w3.org/2000/svg">
</g>
<g xmlns="http://www.w3.org/2000/svg">
</g>
<g xmlns="http://www.w3.org/2000/svg">
</g>
<g xmlns="http://www.w3.org/2000/svg">
</g>
<g xmlns="http://www.w3.org/2000/svg">
</g>
<g xmlns="http://www.w3.org/2000/svg">
</g>
<g xmlns="http://www.w3.org/2000/svg">
</g>
<g xmlns="http://www.w3.org/2000/svg">
</g>
</g></svg>
