<?xml version="1.0"?>
<svg xmlns="http://www.w3.org/2000/svg" xmlns:xlink="http://www.w3.org/1999/xlink" xmlns:svgjs="http://svgjs.com/svgjs" version="1.1" width="512" height="512" x="0" y="0" viewBox="0 0 512 512" style="enable-background:new 0 0 512 512" xml:space="preserve" class=""><g><path xmlns="http://www.w3.org/2000/svg" d="m462.157 399.426c24.579-38.186 38.843-83.639 38.843-132.426 0-135.31-109.69-245-245-245s-245 109.69-245 245c0 48.787 14.264 94.24 38.843 132.426z" fill="#66da98" data-original="#00a8fd" style=""/><path xmlns="http://www.w3.org/2000/svg" d="m237.429 1.118c-53.841 7.336-58.958 37.862-58.982 49.062-.005 2.349-1.306 4.525-3.418 5.553-28.006 13.624-12.907 79.287-12.907 79.287 2.813.188 5.756 1.327 7.952 2.39.537-3.346 1.415-6.64 2.655-9.824.944-2.427 2.125-4.877 3.601-7.193 2.561-4.018 3.728-8.758 3.38-13.497-1.007-13.699-.522-40.691 17.56-48.827 15.318-6.893 34.109-2.901 46.092 1.083 7.782 2.588 16.212 2.588 23.994 0 11.983-3.985 30.773-7.976 46.092-1.083 18.03 8.113 18.564 34.975 17.569 48.709-.346 4.775.789 9.564 3.37 13.613 1.524 2.39 2.733 4.925 3.693 7.428 1.192 3.112 2.041 6.326 2.565 9.59 2.767-1.341 6.723-2.801 10.107-2.323.414-14.358 1.74-29.836 1.74-29.836 15.955-78.145-57.091-112.031-115.063-104.132z" fill="#0052a9" data-original="#0052a9" style=""/><path xmlns="http://www.w3.org/2000/svg" d="m237.302 57.329c-.191-.282-.374-.567-.575-.847-22.327-31.19 1.208-52.332 5.693-55.934-1.674.157-3.339.344-4.991.569-53.841 7.336-58.958 37.862-58.982 49.062-.005 2.349-1.306 4.525-3.418 5.553-28.006 13.624-12.906 79.287-12.906 79.287 2.813.188 5.756 1.327 7.952 2.39.537-3.346 1.415-6.64 2.654-9.824.944-2.427 2.125-4.877 3.601-7.193 2.561-4.018 3.728-8.758 3.38-13.497-1.007-13.699-.522-40.691 17.56-48.827 12.931-5.818 28.336-3.881 40.032-.739z" fill="#003370" data-original="#003370" style="" class=""/><path xmlns="http://www.w3.org/2000/svg" d="m422.091 337.921.006-.014c-1.372-.654-3.2-1.615-6.376-2.86-65.345-29.048-72.874-27.745-79.499-29.956.2.196.379.415.511.678-.234 1.96 1.022 1.638-3.58 13.47-9.54 23.671-26.884 44.458-46.985 60.354-2.03 1.603-4.84 1.71-6.993.273-3.467-2.315-9.569 19.552-9.238 25.757.117 3.723.029-.707.06 49.884 0 1.993-1.651 3.615-3.681 3.615-.17 0-21.273 0-20.632 0-2.029 0-3.681-1.622-3.681-3.615.031-50.569-.057-46.169.059-49.879-.001-.041-.002-.112-.003-.153-.853-10.939-6.103-27.7-9.235-25.609-2.153 1.438-4.962 1.331-6.993-.273-20.101-15.896-37.446-36.684-46.985-60.354-4.603-11.832-3.346-11.51-3.58-13.47.132-.263.311-.482.51-.678-6.624 2.211-14.153.908-79.498 29.956-3.177 1.245-5.005 2.206-6.377 2.86l.007.014c-24.476 12.6-35.699 37.426-40.702 60.505 43.484 68.278 119.847 113.574 206.794 113.574s163.31-45.296 206.794-113.574c-5.004-23.08-16.227-47.905-40.703-60.505z" fill="#fce453" data-original="#fce453" style=""/><path xmlns="http://www.w3.org/2000/svg" d="m113.317 414.275c4.668-10.51 13.464-18.629 24.314-22.443l63.928-22.469s-.764-6.224-2.037-15.635c-8.542-10.519-15.685-22.104-20.676-34.49-4.603-11.832-3.346-11.51-3.58-13.47.132-.263.311-.482.51-.678-6.624 2.211-14.153.908-79.498 29.956-3.176 1.245-5.005 2.206-6.377 2.86l.007.014c-24.476 12.6-35.699 37.426-40.702 60.505 12.954 20.34 28.827 38.64 47.028 54.311z" fill="#ffc533" data-original="#ffc533" style=""/><path xmlns="http://www.w3.org/2000/svg" d="m195.52 288.41 1.096 6.032c.001.001.034.141.034.141.318 1.388.679 2.784 1.074 4.15l.06.207c.133.456.273.919.416 1.373l.086.276c.152.477.309.96.479 1.466l.058.166c3.609 10.598 11.492 26.045 28.541 39.447 4.419 3.475 9.249 6.668 14.355 9.492 2.293 1.268 3.964 3.197 4.832 5.577.058.158.145.304.256.43 2.618 2.946 5.119 6.184 7.435 9.626.499.74 1.726.74 2.223 0 2.305-3.43 4.813-6.673 7.451-9.64.112-.125.199-.271.256-.429.872-2.376 2.54-4.3 4.826-5.564 36.665-20.279 44.549-50.171 46.227-62.969-4.487-10.275-5.921-22.977-6.256-32.726-5.415 6.307-11.098 11.582-16.528 15.799-10.58 8.215-23.635 12.678-37.081 12.678s-26.502-4.462-37.081-12.678c-5.431-4.217-11.114-9.492-16.529-15.799-.335 9.75-1.77 22.453-6.257 32.728z" fill="#fca870" data-original="#fca870" style=""/><path xmlns="http://www.w3.org/2000/svg" d="m218.279 271.264c-5.431-4.217-11.114-9.492-16.529-15.799-.335 9.75-1.77 22.453-6.257 32.728l.027.218 1.096 6.032c.001.001.034.141.034.141.318 1.388.679 2.784 1.074 4.15l.06.207c.133.456.273.919.416 1.373l.086.276c.152.477.309.96.479 1.466l.057.166c3.609 10.598 11.492 26.045 28.541 39.447.577.454 1.18.889 1.771 1.333 22.141-25.937 26.226-59.059 26.226-59.059-13.447-.002-26.502-4.464-37.081-12.679z" fill="#f9955f" data-original="#f9955f" style=""/><path xmlns="http://www.w3.org/2000/svg" d="m338.704 127.58c-1.059-2.764-2.322-5.303-3.752-7.548-2.446-3.838-3.607-8.527-3.268-13.206 1.082-14.933.187-41.202-17.961-49.369-15.242-6.857-33.741-3.21-46.576 1.059-7.602 2.53-15.975 2.529-23.576 0-12.835-4.269-31.334-7.92-46.576-1.059-7.804 3.512-20.514 14.611-17.953 49.488.338 4.595-.826 9.243-3.276 13.088-1.39 2.179-2.622 4.639-3.661 7.309-3.044 7.82-4.029 16.498-2.849 25.097l4.257 30.956c0 51.267 31.018 80.887 44.354 91.243 10.644 8.267 23.959 12.82 37.491 12.82s26.847-4.553 37.491-12.82c13.336-10.355 44.354-39.977 44.347-91.151l4.263-31.041c1.17-8.513.217-17.113-2.755-24.866z" fill="#f9bd91" data-original="#f9bd91" style=""/><path xmlns="http://www.w3.org/2000/svg" d="m250.368 274.638c-9.843-10.355-32.737-39.976-32.737-91.243l-3.142-30.956c-.871-8.599-.144-17.277 2.102-25.097.767-2.67 1.676-5.129 2.702-7.309 1.808-3.845 2.667-8.493 2.418-13.088-1.89-34.876 7.49-45.976 13.25-49.488.582-.355 1.171-.675 1.765-.975-12.064-3.158-27.028-4.743-39.732.975-7.804 3.512-20.514 14.611-17.953 49.488.338 4.595-.826 9.243-3.276 13.088-1.39 2.18-2.622 4.639-3.661 7.309-3.044 7.82-4.029 16.498-2.849 25.097l4.257 30.956c0 51.267 31.019 80.887 44.354 91.243 10.644 8.267 23.959 12.82 37.491 12.82 4.401 0 8.778-.49 13.048-1.424-6.537-1.938-12.737-5.817-18.037-11.396z" fill="#fca870" data-original="#fca870" style=""/><path xmlns="http://www.w3.org/2000/svg" d="m256.3 367.47c-7.307-11.294-14.512-17.225-14.512-17.225l-18.615 29.898c13.41 8.632 15.806 29.719 16.233 36.513 1.112-21.834 9.381-38.428 16.894-49.186z" fill="#f78c2d" data-original="#f78c2d" style="" class=""/><path xmlns="http://www.w3.org/2000/svg" d="m271.218 460.212v-41.397s.233-28.313 16.326-38.671l-18.615-29.898s-29.663 24.373-29.663 68.57v41.397h31.952z" fill="#f9a52b" data-original="#f9a52b" style=""/><path xmlns="http://www.w3.org/2000/svg" d="m242.367 349.988c-37.126-20.533-44.281-51.102-45.654-62.81-.243-2.074-2.643-3.099-4.327-1.864l-25.13 18.425c-1.341.983-1.985 2.681-1.579 4.293 9.998 39.797 42.14 68.855 56.309 80.057 3.606 2.851 8.866 2.025 11.433-1.79 3.629-5.394 8.763-13.023 13.001-19.32 3.956-5.878 2.148-13.561-4.053-16.991z" fill="#ffc533" data-original="#ffc533" style=""/><path xmlns="http://www.w3.org/2000/svg" d="m228.192 340.617c-24.865-19.545-30.302-43.409-31.478-53.439-.243-2.073-2.644-3.098-4.327-1.863l-25.13 18.424c-1.341.984-1.985 2.681-1.579 4.293 6.398 25.467 21.861 46.525 35.882 61.332 11.13-36.54 23.545-30.88 26.632-28.747z" fill="#f9a52b" data-original="#f9a52b" style=""/><path xmlns="http://www.w3.org/2000/svg" d="" fill="#f9a52b" data-original="#f9a52b" style=""/><path xmlns="http://www.w3.org/2000/svg" d="m343.461 303.739-25.13-18.425c-1.684-1.235-4.084-.21-4.327 1.864-1.373 11.708-8.528 42.277-45.654 62.81-6.201 3.43-8.008 11.112-4.052 16.992 4.237 6.296 9.371 13.925 13.001 19.32 2.566 3.814 7.826 4.641 11.433 1.79 14.169-11.202 46.311-40.26 56.309-80.057.404-1.613-.239-3.311-1.58-4.294z" fill="#ffc533" data-original="#ffc533" style=""/><circle xmlns="http://www.w3.org/2000/svg" cx="256.758" cy="406.745" fill="#ffc533" r="6.277" data-original="#ffc533" style=""/><circle xmlns="http://www.w3.org/2000/svg" cx="255.359" cy="437.881" fill="#ffc533" r="6.277" data-original="#ffc533" style=""/><path xmlns="http://www.w3.org/2000/svg" d="m239.266 458.813v11.729c0 2.936 2.411 5.316 5.386 5.316h21.181c2.975 0 5.386-2.38 5.386-5.316v-11.729z" fill="#f78c2d" data-original="#f78c2d" style="" class=""/><path xmlns="http://www.w3.org/2000/svg" d="m351.595 194.424v-79.388c0-1.159.286-2.252.783-3.218v-.419h-6.536c-4.67 0-8.49 3.821-8.49 8.49v69.681c0 4.67 3.821 8.491 8.49 8.491h6.536v-.419c-.497-.967-.783-2.059-.783-3.218z" fill="#dd3f95" data-original="#dd3f95" style=""/><path xmlns="http://www.w3.org/2000/svg" d="m351.595 156.474h-8.447c-2.305 0-4.377-1.028-5.796-2.642v35.738c0 4.67 3.82 8.491 8.49 8.491h6.536v-.419c-.497-.967-.783-2.059-.783-3.218z" fill="#c6237c" data-original="#c6237c" style=""/><path xmlns="http://www.w3.org/2000/svg" d="m364.711 111.399c.642 1.064 1.019 2.306 1.019 3.637v79.388c0 1.331-.377 2.573-1.019 3.637 13.517 0 24.576-11.059 24.576-24.576v-37.51c0-13.517-11.059-24.576-24.576-24.576z" fill="#dd3f95" data-original="#dd3f95" style=""/><path xmlns="http://www.w3.org/2000/svg" d="m382.95 156.474h-17.22v37.95c0 1.331-.377 2.573-1.019 3.637 13.517 0 24.576-11.059 24.576-24.576v-20.338c-1.4 2.005-3.72 3.327-6.337 3.327z" fill="#c6237c" data-original="#c6237c" style=""/><path xmlns="http://www.w3.org/2000/svg" d="m358.662 202.374c-4.391 0-7.951-3.559-7.951-7.951v-79.388c0-4.391 3.56-7.951 7.951-7.951s7.951 3.56 7.951 7.951v79.388c0 4.392-3.559 7.951-7.951 7.951z" fill="#e779b5" data-original="#e779b5" style=""/><path xmlns="http://www.w3.org/2000/svg" d="m161.92 194.424v-79.388c0-1.159-.286-2.252-.783-3.218v-.419h6.536c4.67 0 8.49 3.821 8.49 8.49v69.681c0 4.67-3.82 8.491-8.49 8.491h-6.536v-.419c.498-.967.783-2.059.783-3.218z" fill="#dd3f95" data-original="#dd3f95" style=""/><path xmlns="http://www.w3.org/2000/svg" d="m170.358 156.474h-8.438v37.95c0 1.159-.286 2.252-.783 3.218v.419h6.536c4.67 0 8.49-3.821 8.49-8.491v-35.749c-1.418 1.62-3.495 2.653-5.805 2.653z" fill="#fc2740" data-original="#fc2740" style=""/><path xmlns="http://www.w3.org/2000/svg" d="m148.805 111.399c-.642 1.064-1.019 2.306-1.019 3.637v79.388c0 1.331.377 2.573 1.019 3.637h-.001c-13.517 0-24.576-11.059-24.576-24.576v-37.51c.001-13.517 11.06-24.576 24.577-24.576z" fill="#dd3f95" data-original="#dd3f95" style=""/><path xmlns="http://www.w3.org/2000/svg" d="m147.786 156.474h-17.229c-2.611 0-4.927-1.316-6.328-3.314v20.325c0 13.517 11.059 24.576 24.576 24.576-.642-1.064-1.019-2.306-1.019-3.637z" fill="#fc2740" data-original="#fc2740" style=""/><path xmlns="http://www.w3.org/2000/svg" d="m154.853 202.374c4.391 0 7.951-3.559 7.951-7.951v-79.388c0-4.391-3.559-7.951-7.951-7.951-4.391 0-7.951 3.56-7.951 7.951v79.388c.001 4.392 3.56 7.951 7.951 7.951z" fill="#e779b5" data-original="#e779b5" style=""/><path xmlns="http://www.w3.org/2000/svg" d="m358.662 163.717c-4.391 0-7.951-3.559-7.951-7.95v38.657c0 4.391 3.56 7.951 7.951 7.951s7.951-3.559 7.951-7.951v-38.657c0 4.391-3.559 7.95-7.951 7.95z" fill="#dd3f95" data-original="#dd3f95" style=""/><path xmlns="http://www.w3.org/2000/svg" d="m154.853 163.717c-4.391 0-7.951-3.559-7.951-7.95v38.657c0 4.391 3.559 7.951 7.951 7.951s7.951-3.559 7.951-7.951v-38.657c0 4.391-3.56 7.95-7.951 7.95z" fill="#fe465c" data-original="#fe465c" style=""/><path xmlns="http://www.w3.org/2000/svg" d="m308.903 259.9c-3.341 0-6.436-2.155-7.477-5.513-1.282-4.13 1.029-8.518 5.159-9.798 16.724-5.188 30.187-11.758 38.534-16.358 3.523-1.941 5.712-5.648 5.712-9.672v-23.016c0-4.325 3.506-7.831 7.831-7.831s7.831 3.505 7.831 7.831v23.016c0 9.731-5.294 18.694-13.816 23.389-8.985 4.95-23.471 12.021-41.453 17.599-.771.239-1.553.353-2.321.353z" fill="#ebf1f7" data-original="#ebf1f7" style=""/><path xmlns="http://www.w3.org/2000/svg" d="m198.331 144.809h-88.87c-26.316 0-48.354 21.536-47.851 47.847.488 25.498 21.31 46.018 46.924 46.018h39.095c6.102 0 11.918 2.586 16.006 7.115l16.454 18.233c2.87 3.181 8.151 1.15 8.151-3.134v-13.049c0-5.062 4.103-9.165 9.165-9.165 26.316 0 48.354-21.536 47.851-47.848-.489-25.497-21.311-46.017-46.925-46.017z" fill="#ebf1f7" data-original="#ebf1f7" style=""/><path xmlns="http://www.w3.org/2000/svg" d="m136.828 144.809h-27.368c-26.316 0-48.354 21.536-47.851 47.847.488 25.498 21.31 46.018 46.924 46.018h28.294c-18.053-21.55 0-37.31 0-37.31v-17.949c-21.555-21.556.001-38.606.001-38.606z" fill="#cee3f4" data-original="#cee3f4" style=""/><g xmlns="http://www.w3.org/2000/svg" fill="#fff"><path d="m106.267 183.415c-4.948 0-8.975 4.026-8.975 8.975 0 4.948 4.026 8.975 8.975 8.975 4.948 0 8.975-4.026 8.975-8.975 0-4.948-4.027-8.975-8.975-8.975z" fill="#ffffff" data-original="#ffffff" style=""/><path d="m136.828 183.415c-4.948 0-8.975 4.026-8.975 8.975 0 4.948 4.026 8.975 8.975 8.975 4.948 0 8.975-4.026 8.975-8.975 0-4.948-4.027-8.975-8.975-8.975z" fill="#ffffff" data-original="#ffffff" style=""/><path d="m167.388 183.415c-4.948 0-8.975 4.026-8.975 8.975 0 4.948 4.027 8.975 8.975 8.975s8.975-4.026 8.975-8.975c0-4.948-4.027-8.975-8.975-8.975z" fill="#ffffff" data-original="#ffffff" style=""/><path d="m197.949 183.415c-4.948 0-8.975 4.026-8.975 8.975 0 4.948 4.026 8.975 8.975 8.975 4.948 0 8.975-4.026 8.975-8.975 0-4.948-4.027-8.975-8.975-8.975z" fill="#ffffff" data-original="#ffffff" style=""/></g><path xmlns="http://www.w3.org/2000/svg" d="m333.783 238.308c0-1.829.526-3.531 1.421-4.981-7.714 3.704-17.431 7.791-28.619 11.262-4.131 1.281-6.441 5.668-5.159 9.798 1.041 3.359 4.136 5.513 7.477 5.513.768 0 1.55-.114 2.322-.354 11.817-3.665 22.109-7.973 30.338-11.902-4.425-.81-7.78-4.678-7.78-9.336z" fill="#cee3f4" data-original="#cee3f4" style=""/><path xmlns="http://www.w3.org/2000/svg" d="m270.618 272.903c-6.659 0-12.345-5.072-12.979-11.834-.673-7.176 4.599-13.54 11.776-14.212 8.704-.817 17.661-2.398 26.619-4.701 6.975-1.8 14.094 2.409 15.89 9.391 1.794 6.98-2.409 14.094-9.391 15.89-10.287 2.645-20.61 4.465-30.681 5.409-.414.038-.826.057-1.234.057z" fill="#33bafe" data-original="#33bafe" style=""/><path xmlns="http://www.w3.org/2000/svg" d="m282.605 256.624c-.476-5.077 1.791-9.768 5.574-12.64-6.322 1.328-12.606 2.296-18.764 2.874-7.176.673-12.449 7.036-11.776 14.213.634 6.762 6.32 11.834 12.979 11.834.408 0 .82-.019 1.234-.058 7.463-.699 15.063-1.883 22.685-3.523-6.265-.988-11.312-6.097-11.932-12.7z" fill="#0090fc" data-original="#0090fc" style=""/></g></svg>
