<?xml version="1.0"?>
<svg xmlns="http://www.w3.org/2000/svg" xmlns:xlink="http://www.w3.org/1999/xlink" xmlns:svgjs="http://svgjs.com/svgjs" version="1.1" width="512" height="512" x="0" y="0" viewBox="0 0 501 501" style="enable-background:new 0 0 512 512" xml:space="preserve" class=""><g>
<g xmlns="http://www.w3.org/2000/svg">
	<path style="" d="M495.487,253.466c0.73,72.202-29.785,137.279-78.843,182.571c-4.621,4.267-10.99,6.081-17.178,4.956   c-46.725-8.494-96.834-13.103-148.966-13.103c-52.131,0-102.239,4.609-148.963,13.103c-6.224,1.132-12.609-0.731-17.256-5.024   C35.842,391.21,5.5,327.153,5.5,256c0-135.131,109.4-244.71,244.464-244.999C384.938,10.711,494.123,118.499,495.487,253.466z" fill="#66da98" data-original="#014c7e"/>
	<path style="" d="M365.5,115c0,63.513-51.487,115-115,115s-115-51.487-115-115S186.987,0,250.5,0   S365.5,51.487,365.5,115z" fill="#ffb23c" data-original="#ffb23c"/>
	<path style="" d="M325.5,115c0,41.421-33.579,75-75,75s-75-33.579-75-75s33.579-75,75-75S325.5,73.579,325.5,115z" fill="#ffc981" data-original="#ffc981"/>
	<path style="" d="M325.5,115c0,37.057-26.883,67.816-62.206,73.891c-35.323-6.075-62.206-36.834-62.206-73.891   s26.883-67.816,62.206-73.891C298.617,47.184,325.5,77.943,325.5,115z" fill="#ffd69e" data-original="#ffd69e"/>
	<path style="" d="M265.5,70v90c0,5.523-4.477,10-10,10h-10c-5.523,0-10-4.477-10-10V70c0-5.523,4.477-10,10-10h10   C261.023,60,265.5,64.477,265.5,70z M217.972,193.53c-5.103-2.114-10.952,0.31-13.066,5.412c-2.114,5.102,0.31,10.952,5.412,13.065   c5.102,2.114,10.952-0.31,13.065-5.412C225.497,201.493,223.074,195.643,217.972,193.53z M176.254,40.754   c-3.905,3.905-3.905,10.237,0,14.142s10.237,3.905,14.142,0s3.905-10.237,0-14.142S180.159,36.849,176.254,40.754z M166.558,69.406   c-5.103-2.113-10.952,0.31-13.066,5.412s0.31,10.952,5.412,13.065c5.103,2.114,10.952-0.31,13.066-5.412   C174.084,77.37,171.661,71.52,166.558,69.406z M176.254,175.104c-3.905,3.905-3.905,10.237,0,14.142s10.237,3.905,14.142,0   s3.905-10.237,0-14.142S180.159,171.199,176.254,175.104z M342.095,87.884c5.102-2.113,7.525-7.963,5.412-13.065   s-7.963-7.525-13.066-5.412c-5.102,2.113-7.525,7.963-5.412,13.065C331.143,87.574,336.993,89.998,342.095,87.884z M250.5,30   c5.523,0,10-4.477,10-10s-4.477-10-10-10s-10,4.477-10,10S244.977,30,250.5,30z M165.5,115c0-5.523-4.477-10-10-10s-10,4.477-10,10   s4.477,10,10,10S165.5,120.523,165.5,115z M158.905,142.116c-5.102,2.113-7.525,7.963-5.412,13.065s7.963,7.525,13.066,5.412   c5.102-2.113,7.525-7.963,5.412-13.065C169.857,142.426,164.007,140.002,158.905,142.116z M345.5,105c-5.523,0-10,4.477-10,10   s4.477,10,10,10s10-4.477,10-10S351.023,105,345.5,105z M210.318,17.993c-5.103,2.114-7.526,7.963-5.412,13.066   c2.114,5.102,7.963,7.526,13.066,5.412c5.102-2.114,7.525-7.963,5.412-13.066C221.271,18.302,215.421,15.879,210.318,17.993z    M342.095,142.116c-5.103-2.114-10.952,0.31-13.066,5.412c-2.114,5.102,0.31,10.952,5.412,13.065   c5.103,2.113,10.952-0.31,13.066-5.412S347.198,144.229,342.095,142.116z M310.604,175.104c-3.905,3.905-3.905,10.237,0,14.142   s10.237,3.905,14.142,0s3.905-10.237,0-14.142S314.509,171.199,310.604,175.104z M310.604,40.754   c-3.905,3.905-3.905,10.237,0,14.142s10.237,3.905,14.142,0s3.905-10.237,0-14.142S314.509,36.849,310.604,40.754z M290.682,17.993   c-5.102-2.114-10.952,0.31-13.065,5.412c-2.114,5.103,0.31,10.952,5.412,13.066c5.103,2.114,10.952-0.31,13.066-5.412   C298.207,25.956,295.784,20.106,290.682,17.993z M250.5,200c-5.523,0-10,4.477-10,10s4.477,10,10,10s10-4.477,10-10   S256.023,200,250.5,200z M283.028,193.53c-5.102,2.113-7.525,7.963-5.412,13.065c2.113,5.103,7.963,7.526,13.065,5.412   c5.103-2.113,7.526-7.963,5.412-13.065C293.98,193.839,288.131,191.416,283.028,193.53z" fill="#ee9500" data-original="#ee9500" class=""/>
	<path style="" d="M407.5,176.5v130v58v79.575c-42.518,35.531-254.095,41.753-293.004,15.735   c-10.236-6.844-19.928-14.44-28.996-22.706V364.5v-58v-130c0-8.284,6.716-15,15-15h292C400.784,161.5,407.5,168.216,407.5,176.5z" fill="#5ea1df" data-original="#5ea1df" class=""/>
	<path style="" d="M415.5,176.5v130v58v72.604c-9.069,8.267-18.76,15.862-28.996,22.706   c-38.909,26.017-216.71,30.824-251.004,12.559V364.5v-58v-130c0-8.284,6.716-15,15-15h250C408.784,161.5,415.5,168.216,415.5,176.5   z" fill="#81b6e8" data-original="#81b6e8" class=""/>
	<path style="" d="M386.5,196.5v120v143.304C347.59,485.82,300.82,501,250.5,501s-97.09-15.18-136-41.196V457.5v-141   v-120c0-2.761,2.239-5,5-5h60c2.761,0,5,2.239,5,5v10c0,8.284,6.716,15,15,15h102c8.284,0,15-6.716,15-15v-10c0-2.761,2.239-5,5-5   h60C384.261,191.5,386.5,193.739,386.5,196.5z" fill="#ffe2bd" data-original="#ffe2bd" class=""/>
	<path style="" d="M250.5,201.5h-30c-5.523,0-10-4.477-10-10v0c0-5.523,4.477-10,10-10h30c5.523,0,10,4.477,10,10v0   C260.5,197.023,256.023,201.5,250.5,201.5z" fill="#368ed7" data-original="#368ed7" class=""/>
	<path style="" d="M280.5,201.5L280.5,201.5c-5.523,0-10-4.477-10-10v0c0-5.523,4.477-10,10-10l0,0   c5.523,0,10,4.477,10,10v0C290.5,197.023,286.023,201.5,280.5,201.5z" fill="#eafaff" data-original="#eafaff"/>
	<path style="" d="M365.5,245v227.37c-34.294,18.265-73.434,28.63-115,28.63s-80.706-10.365-115-28.63V245   c0-2.761,2.239-5,5-5h220C363.261,240,365.5,242.239,365.5,245z" fill="#ffc981" data-original="#ffc981"/>
	<path style="" d="M290.5,320v177.731c-9.816,1.612-19.828,2.64-30,3.049V320c0-2.762,2.239-5,5-5h20   C288.261,315,290.5,317.238,290.5,320z M335.5,395h-20c-2.761,0-5,2.238-5,5v93.587c10.272-2.586,20.29-5.811,30-9.648V400   C340.5,397.238,338.261,395,335.5,395z M185.5,395h-20c-2.761,0-5,2.238-5,5v83.938c9.71,3.837,19.728,7.063,30,9.648V400   C190.5,397.238,188.261,395,185.5,395z M235.5,355h-20c-2.761,0-5,2.238-5,5v137.731c9.816,1.612,19.828,2.64,30,3.049V360   C240.5,357.238,238.261,355,235.5,355z M285.5,280h-20c-2.761,0-5,2.238-5,5v5c0,2.762,2.239,5,5,5h20c2.761,0,5-2.238,5-5v-5   C290.5,282.238,288.261,280,285.5,280z" fill="#ff5526" data-original="#ff5526"/>
	<path style="" d="M160.5,439.798c9.71,3.837,19.728,7.063,30,9.648v44.14c-10.272-2.586-20.29-5.811-30-9.648V439.798   z M210.5,497.731c9.816,1.612,19.828,2.64,30,3.049v-44.14c-10.172-0.409-20.184-1.437-30-3.049V497.731z M260.5,500.78   c10.172-0.409,20.184-1.437,30-3.049v-44.14c-9.816,1.612-19.828,2.64-30,3.049V500.78z M310.5,449.447v44.14   c10.272-2.586,20.29-5.811,30-9.648v-44.14C330.79,443.636,320.772,446.861,310.5,449.447z" fill="#eb4328" data-original="#eb4328"/>
</g>















</g></svg>
