<?xml version="1.0"?>
<svg xmlns="http://www.w3.org/2000/svg" xmlns:xlink="http://www.w3.org/1999/xlink" xmlns:svgjs="http://svgjs.com/svgjs" version="1.1" width="512" height="512" x="0" y="0" viewBox="0 0 512 512" style="enable-background:new 0 0 512 512" xml:space="preserve" class=""><g><path xmlns="http://www.w3.org/2000/svg" d="m512 256c0 50.59375-14.671875 97.761719-40.007812 137.464844-7.410157 11.609375-15.714844 22.582031-24.847657 32.820312-.085937.097656-.167969.191406-.253906.285156-2.277344 2.558594-4.617187 5.066407-7.007813 7.523438-1.183593 1.222656-2.382812 2.433594-3.585937 3.613281-6.175781 6.15625-12.664063 11.964844-19.445313 17.441407-6.59375 5.339843-13.449218 10.355468-20.5625 15.003906-1.339843.878906-2.675781 1.746094-4.035156 2.589844-7.730468 4.890624-15.746094 9.363281-24.019531 13.398437-33.886719 16.570313-71.984375 25.859375-112.234375 25.859375s-78.335938-9.289062-112.222656-25.851562c-3.582032-1.746094-7.113282-3.582032-10.59375-5.484376-2.425782-1.328124-4.828125-2.695312-7.199219-4.097656-5.257813-3.101562-10.386719-6.394531-15.382813-9.851562-4.941406-3.417969-9.769531-7-14.449218-10.753906-11.253906-9.003907-21.722656-18.941407-31.304688-29.695313-9.132812-10.238281-17.449218-21.210937-24.859375-32.832031-25.316406-39.703125-39.988281-86.859375-39.988281-137.433594 0-141.386719 114.613281-256 256-256s256 114.613281 256 256zm0 0" fill="#66da98" data-original="#274b7b" style="" class=""/><path xmlns="http://www.w3.org/2000/svg" d="m438.574219 405.28125c-1.960938 29.917969-19.285157 54.398438-42.277344 61.5-2.96875.925781-6.035156 1.554688-9.164063 1.863281-87.417968 8.722657-174.847656 8.722657-262.273437 0-27.429687-2.734375-49.230469-29.585937-51.445313-63.363281-7.082031-107.6875-7.082031-215.363281 0-323.046875 2.214844-33.78125 24.019532-60.632813 51.445313-63.367187 19.925781-1.984376 39.839844-3.519532 59.769531-4.597657 67.5-3.671875 135-2.140625 202.503906 4.597657 27.425782 2.734374 49.226563 29.585937 51.441407 63.367187 7.09375 107.683594 7.09375 215.359375 0 323.046875zm0 0" fill="#ec4081" data-original="#ec4081" style=""/><path xmlns="http://www.w3.org/2000/svg" d="m438.574219 405.28125c-1.960938 29.917969-19.285157 54.398438-42.277344 61.5-67.492187 3.671875-134.972656 2.140625-202.460937-4.597656-27.414063-2.734375-49.21875-29.585938-51.445313-63.367188-7.078125-107.683594-7.078125-215.371094 0-323.058594 1.972656-29.882812 19.277344-54.367187 42.238281-61.492187 67.5-3.671875 135-2.136719 202.503906 4.601563 27.425782 2.734374 49.226563 29.585937 51.441407 63.363281 7.09375 107.6875 7.09375 215.363281 0 323.050781zm0 0" fill="#f974ac" data-original="#f974ac" style="" class=""/><path xmlns="http://www.w3.org/2000/svg" d="m471.992188 393.464844c-45.445313 71.273437-125.199219 118.535156-215.992188 118.535156-90.800781 0-170.570312-47.28125-216.011719-118.566406-3.292969-77.277344-1.808593-154.570313 4.453125-231.851563 2.578125-31.773437 27.835938-57.03125 59.609375-59.609375 101.292969-8.203125 202.59375-8.203125 303.886719 0 31.777344 2.578125 57.042969 27.835938 59.613281 59.609375 6.257813 77.292969 7.742188 154.582031 4.441407 231.882813zm0 0" fill="#a0d1e0" data-original="#a0d1e0" style="" class=""/><path xmlns="http://www.w3.org/2000/svg" d="m447.144531 426.285156c-22.039062 24.734375-48.820312 45.164063-78.910156 59.855469-37.410156 2.152344-75.015625 3.238281-112.234375 3.238281-37.207031 0-74.816406-1.085937-112.222656-3.230468-30.101563-14.699219-56.882813-35.140626-78.929688-59.882813-6.449218-88.117187-5.925781-177.234375 1.578125-265.203125 1.710938-20.054688 18.285157-35.789062 39.402344-37.410156 49.820313-3.832032 100.351563-5.777344 150.171875-5.777344s100.339844 1.945312 150.164062 5.777344c21.117188 1.621094 37.699219 17.355468 39.402344 37.410156 7.511719 87.976562 8.035156 177.097656 1.578125 265.222656zm0 0" fill="#c4e9f7" data-original="#c4e9f7" style="" class=""/><path xmlns="http://www.w3.org/2000/svg" d="m448.148438 376.742188-28.152344-7.726563 29.191406.175781c4.015625.023438 7.289062-3.207031 7.316406-7.222656l.027344-4.71875c.023438-4.015625-3.210938-7.289062-7.226562-7.3125l-29.191407-.179688 28.242188-7.382812c3.886719-1.015625 6.210937-4.988281 5.195312-8.871094l-1.191406-4.566406c-1.015625-3.882812-4.988281-6.210938-8.871094-5.195312l-28.242187 7.386718 25.367187-14.441406c3.488281-1.988281 4.707031-6.425781 2.722657-9.914062l-2.335938-4.101563c-1.984375-3.492187-6.425781-4.707031-9.914062-2.722656l-25.367188 14.441406 20.765625-20.515625c2.855469-2.820312 2.882813-7.421875.0625-10.277344l-3.316406-3.359375c-2.820313-2.855469-7.425781-2.882812-10.28125-.0625l-20.765625 20.515625 14.75-25.191406c2.027344-3.464844.863281-7.917969-2.601563-9.945312l-4.074219-2.386719c-3.464843-2.027344-7.917968-.863281-9.945312 2.601562l-14.75 25.191407 7.726562-28.148438c1.0625-3.875-1.210937-7.875-5.085937-8.9375l-4.546875-1.246094c-3.875-1.0625-7.871094 1.214844-8.9375 5.085938l-7.726562 28.148437.179687-29.191406c.023437-4.011719-3.210937-7.289063-7.226563-7.3125l-4.71875-.027344c-4.011718-.023437-7.289062 3.210938-7.3125 7.222657l-.175781 29.191406-7.382812-28.242188c-1.015625-3.882812-4.988281-6.210937-8.871094-5.195312l-4.566406 1.195312c-3.886719 1.015625-6.210938 4.988282-5.195313 8.871094l7.382813 28.242188-14.441407-25.367188c-1.988281-3.492188-6.425781-4.707031-9.914062-2.722656l-4.101562 2.335937c-3.488282 1.984375-4.707032 6.421875-2.71875 9.914063l14.441406 25.367187-20.515625-20.765625c-2.824219-2.855468-7.425781-2.882812-10.28125-.0625l-3.355469 3.316406c-2.859375 2.820313-2.886719 7.421876-.066406 10.277344l20.515625 20.769532-25.191407-14.75c-3.464843-2.027344-7.914062-.863282-9.945312 2.601562l-2.382812 4.070312c-2.027344 3.464844-.863282 7.917969 2.601562 9.949219l25.191406 14.746094-28.152344-7.726563c-3.871093-1.0625-7.871093 1.214844-8.933593 5.085938l-1.25 4.550781c-1.0625 3.871094 1.214843 7.871094 5.085937 8.933594l28.152344 7.726563-29.191406-.175782c-4.015625-.023437-7.289063 3.210938-7.3125 7.222656l-.03125 4.71875c-.023438 4.015626 3.210937 7.289063 7.226562 7.3125l29.191406.179688-28.242187 7.382812c-3.886719 1.015626-6.210937 4.988282-5.195313 8.871094l1.191407 4.566406c1.015625 3.882813 4.988281 6.210938 8.871093 5.195313l28.246094-7.382813-25.371094 14.441407c-3.488281 1.984375-4.707031 6.425781-2.71875 9.914062l2.332032 4.101563c1.988281 3.488281 6.425781 4.707031 9.914062 2.71875l25.371094-14.441406-20.769531 20.515624c-2.855469 2.820313-2.882813 7.425782-.0625 10.28125l3.316406 3.355469c2.824219 2.855469 7.425781 2.882813 10.28125.0625l20.765625-20.515625-14.75 25.191406c-2.027344 3.464844-.863281 7.917969 2.601562 9.945313l4.074219 2.386719c3.464844 2.027344 7.917969.863281 9.945313-2.601563l14.75-25.191406-7.726563 28.152344c-1.0625 3.871093 1.214844 7.871093 5.085938 8.933593l4.550781 1.246094c3.871094 1.0625 7.871094-1.210937 8.933594-5.082031l7.726562-28.152344-.179687 29.191407c-.023438 4.015624 3.210937 7.289062 7.226562 7.3125l4.71875.027343c4.011719.023438 7.289063-3.207031 7.3125-7.222656l.175781-29.191406 7.386719 28.242187c1.015625 3.882813 4.984375 6.210938 8.871094 5.195313l4.566406-1.195313c3.882813-1.015625 6.207031-4.988281 5.191407-8.871094l-7.382813-28.242187 14.441406 25.371094c1.988281 3.488281 6.425781 4.707031 9.914063 2.71875l4.101562-2.332031c3.488282-1.988282 4.707032-6.425782 2.722656-9.914063l-14.441406-25.371094 20.515625 20.769531c2.820313 2.855469 7.421875 2.882813 10.277344.0625l3.359375-3.316406c2.855469-2.824218 2.882812-7.425781.0625-10.28125l-20.515625-20.765625 25.191406 14.746094c3.464844 2.03125 7.917969.867187 9.945313-2.597656l2.382812-4.074219c2.027344-3.464844.863282-7.917969-2.601562-9.945312l-25.191406-14.75 28.152343 7.726562c3.871094 1.0625 7.871094-1.214844 8.933594-5.085938l1.25-4.550781c1.0625-3.871093-1.214844-7.871093-5.085937-8.933593zm0 0" fill="#fcbc77" data-original="#fcbc77" style="" class=""/><path xmlns="http://www.w3.org/2000/svg" d="m452.011719 358.941406c0 58.042969-47.050781 105.09375-105.09375 105.09375-58.039063 0-105.089844-47.050781-105.089844-105.09375 0-58.039062 47.050781-105.089844 105.089844-105.089844 58.042969 0 105.09375 47.050782 105.09375 105.089844zm0 0" fill="#fcbc77" data-original="#fcbc77" style="" class=""/><path xmlns="http://www.w3.org/2000/svg" d="m444.269531 358.941406c0 53.765625-43.585937 97.351563-97.351562 97.351563s-97.351563-43.585938-97.351563-97.351563 43.585938-97.351562 97.351563-97.351562 97.351562 43.585937 97.351562 97.351562zm0 0" fill="#fee175" data-original="#fee175" style=""/><path xmlns="http://www.w3.org/2000/svg" d="m428.167969 358.941406c0 44.871094-36.378907 81.25-81.25 81.25-44.871094 0-81.246094-36.378906-81.246094-81.25s36.375-81.246094 81.246094-81.246094c44.871093 0 81.25 36.375 81.25 81.246094zm0 0" fill="#fcbc77" data-original="#fcbc77" style="" class=""/><path xmlns="http://www.w3.org/2000/svg" d="m414.449219 377.480469c-.921875 3.351562-2.070313 6.589843-3.433594 9.683593-12.375 28.199219-41.988281 45.058594-72.550781 41.300782-3.359375-.40625-6.722656-1.066406-10.082032-1.988282-10.296874-2.828124-19.417968-7.808593-27.019531-14.339843-5.105469-4.359375-9.519531-9.429688-13.128906-14.988281-2.722656-4.171876-4.988281-8.636719-6.765625-13.296876-5.121094-13.421874-6.175781-28.53125-2.082031-43.445312.03125-.117188.0625-.226562.101562-.339844 10.34375-36.988281 48.554688-58.734375 85.628907-48.746094.113281.023438.230468.054688.339843.082032 14.917969 4.097656 27.375 12.71875 36.296875 23.980468 3.101563 3.898438 5.78125 8.132813 7.972656 12.601563 2.941407 5.957031 5.042969 12.328125 6.183594 18.941406 1.738282 9.871094 1.363282 20.261719-1.460937 30.554688zm0 0" fill="#fee175" data-original="#fee175" style=""/><path xmlns="http://www.w3.org/2000/svg" d="m401.753906 315.386719-120.285156 68.464843c-5.121094-13.421874-6.175781-28.53125-2.082031-43.441406.03125-.117187.0625-.226562.101562-.34375l85.628907-48.746094c.113281.023438.230468.054688.339843.085938 14.921875 4.09375 27.375 12.714844 36.296875 23.980469zm0 0" fill="#ffeeb8" data-original="#ffeeb8" style="" class=""/><path xmlns="http://www.w3.org/2000/svg" d="m415.914062 346.925781-114.550781 65.210938c-5.105469-4.359375-9.519531-9.425781-13.128906-14.988281l121.492187-69.164063c2.945313 5.957031 5.042969 12.328125 6.1875 18.941406zm0 0" fill="#ffeeb8" data-original="#ffeeb8" style="" class=""/><path xmlns="http://www.w3.org/2000/svg" d="m411.015625 387.167969c-12.375 28.195312-41.988281 45.054687-72.554687 41.300781zm0 0" fill="#ffeeb8" data-original="#ffeeb8" style="" class=""/><path xmlns="http://www.w3.org/2000/svg" d="m331.015625 403.257812c-15.035156-4.671874-25.273437-15.910156-23.054687-24.003906 1.179687-4.300781 6.710937-9.582031 11.515624-8.265625 5.308594 1.460938 7.5625 10.097657 16.46875 14.3125l5.621094-20.484375c-10.417968-7.621094-22.582031-16.804687-18.140625-32.992187 4.410157-16.058594 18.410157-20.507813 32.335938-18.726563l.972656-3.539062c.484375-1.769532 2.960937-2.859375 5.742187-2.097656 2.402344.660156 4.355469 2.964843 3.867188 4.734374l-.867188 3.160157c7.773438 2.40625 22.011719 8.488281 19.617188 17.214843-.9375 3.414063-5.121094 9.742188-10.6875 8.21875-4.171875-1.148437-5.464844-5.851562-13.511719-8.742187l-5.066406 18.464844c10.328125 7.457031 22.101563 17.078125 17.414063 34.148437-4.304688 15.679688-17.023438 22.386719-32.476563 20.730469l-1.007813 3.667969c-.484374 1.769531-3.339843 2.753906-5.742187 2.09375-2.78125-.761719-4.351563-2.964844-3.867187-4.734375zm17.300781-58.074218 4.128906-15.046875c-6.003906-.425781-9.203124 1.824219-10.035156 4.859375-1.007812 3.667968 1.65625 6.84375 5.90625 10.1875zm.660156 25.335937-4.652343 16.945313c4.578125.167968 8.652343-1.296875 9.902343-5.847656 1.144532-4.175782-1.289062-7.699219-5.25-11.097657zm0 0" fill="#f2a85f" data-original="#f2a85f" style="" class=""/><path xmlns="http://www.w3.org/2000/svg" d="m258.070312 239.941406-19.816406 21.433594 13.59375-25.832031c1.871094-3.550781.507813-7.949219-3.046875-9.816407l-4.175781-2.199218c-3.550781-1.867188-7.949219-.503906-9.816406 3.046875l-13.597656 25.832031 6.445312-28.46875c.886719-3.917969-1.566406-7.808594-5.484375-8.695312l-4.601563-1.042969c-3.914062-.886719-7.808593 1.570312-8.695312 5.484375l-6.445312 28.472656-1.140626-29.167969c-.15625-4.011719-3.539062-7.136719-7.550781-6.980469l-4.714843.183594c-4.011719.15625-7.136719 3.539063-6.976563 7.550782l1.140625 29.167968-8.652344-27.878906c-1.191406-3.835938-5.261718-5.980469-9.097656-4.789062l-4.507812 1.398437c-3.832032 1.191406-5.976563 5.265625-4.785157 9.097656l8.652344 27.878907-15.574219-24.691407c-2.144531-3.394531-6.632812-4.410156-10.027344-2.269531l-3.992187 2.519531c-3.394531 2.144531-4.410156 6.632813-2.269531 10.027344l15.574218 24.691406-21.433593-19.820312c-2.949219-2.722657-7.546875-2.542969-10.273438.402343l-3.203125 3.464844c-2.722656 2.949219-2.542968 7.546875.402344 10.273438l21.433594 19.816406-25.832032-13.59375c-3.550781-1.871094-7.949218-.503906-9.816406 3.046875l-2.199218 4.175781c-1.867188 3.554688-.503907 7.949219 3.046874 9.820313l25.835938 13.59375-28.472656-6.445313c-3.914063-.886718-7.808594 1.570313-8.695313 5.484375l-1.042969 4.601563c-.882812 3.914062 1.570313 7.808594 5.484376 8.695312l28.472656 6.445313-29.167969 1.144531c-4.011719.15625-7.136719 3.535156-6.980469 7.546875l.1875 4.714844c.15625 4.011719 3.535156 7.136719 7.546875 6.980469l29.167969-1.144532-27.882812 8.652344c-3.832032 1.191406-5.976563 5.265625-4.789063 9.097656l1.398437 4.507813c1.191407 3.832031 5.265626 5.976562 9.097657 4.789062l27.878906-8.65625-24.6875 15.574219c-3.398437 2.144531-4.414063 6.632812-2.269531 10.027344l2.515625 3.992187c2.144531 3.398438 6.632812 4.414063 10.027343 2.269531l24.691407-15.574218-19.816407 21.433594c-2.726562 2.949218-2.546874 7.546874.398438 10.273437l3.46875 3.203125c2.945312 2.726562 7.546875 2.546875 10.269531-.402344l19.820313-21.433594-13.597656 25.832032c-1.867188 3.550781-.503907 7.949218 3.046874 9.816406l4.175782 2.199219c3.554687 1.867187 7.949218.503906 9.820312-3.046875l13.59375-25.832032-6.445312 28.46875c-.886719 3.917969 1.570312 7.808594 5.484375 8.695313l4.601562 1.042969c3.917969.886718 7.808594-1.570313 8.695313-5.484375l6.445312-28.472657 1.144532 29.171876c.15625 4.011718 3.535156 7.136718 7.546874 6.976562l4.714844-.183594c4.011719-.15625 7.136719-3.535156 6.980469-7.546875l-1.144531-29.171875 8.652344 27.882813c1.191406 3.832031 5.265624 5.976562 9.097656 4.785156l4.507812-1.398437c3.835938-1.191407 5.976563-5.261719 4.789063-9.097657l-8.652344-27.878906 15.574219 24.691406c2.140625 3.394531 6.628906 4.410157 10.023437 2.269531l3.992188-2.519531c3.398437-2.140625 4.414062-6.632812 2.269531-10.027343l-15.574219-24.691407 21.433594 19.820313c2.949219 2.722656 7.550781 2.542968 10.273437-.402344l3.203126-3.464844c2.726562-2.949218 2.546874-7.546875-.402344-10.273437l-21.433594-19.816407 25.832031 13.59375c3.554688 1.871094 7.949219.503907 9.820313-3.046874l2.195312-4.175782c1.871094-3.554687.507813-7.949218-3.046875-9.820312l-25.832031-13.59375 28.472656 6.445312c3.914063.886719 7.808594-1.570312 8.695313-5.484375l1.039062-4.601562c.886719-3.914063-1.570312-7.808594-5.484375-8.695313l-28.46875-6.445312 29.167969-1.144532c4.011719-.15625 7.136719-3.535156 6.976563-7.546874l-.183594-4.714844c-.15625-4.011719-3.535156-7.136719-7.546875-6.980469l-29.171875 1.144531 27.878906-8.652344c3.835938-1.191406 5.980469-5.265624 4.789062-9.097656l-1.398437-4.507812c-1.191406-3.835938-5.261719-5.976563-9.097656-4.789063l-27.878907 8.652344 24.691407-15.574219c3.394531-2.140625 4.410156-6.628906 2.269531-10.027344l-2.519531-3.988281c-2.140625-3.398437-6.628907-4.414062-10.027344-2.269531l-24.6875 15.574219 19.816406-21.433594c2.722657-2.949219 2.542969-7.550781-.402343-10.273437l-3.464844-3.203126c-2.945313-2.726562-7.542969-2.542968-10.269532.402344zm0 0" fill="#fcbc77" data-original="#fcbc77" style="" class=""/><path xmlns="http://www.w3.org/2000/svg" d="m300.761719 321.613281c0 58.039063-47.050781 105.089844-105.089844 105.089844-58.042969 0-105.09375-47.050781-105.09375-105.089844 0-58.039062 47.050781-105.089843 105.09375-105.089843 58.039063 0 105.089844 47.050781 105.089844 105.089843zm0 0" fill="#fcbc77" data-original="#fcbc77" style="" class=""/><path xmlns="http://www.w3.org/2000/svg" d="m293.023438 321.613281c0 53.765625-43.585938 97.351563-97.351563 97.351563s-97.351563-43.585938-97.351563-97.351563 43.585938-97.351562 97.351563-97.351562 97.351563 43.585937 97.351563 97.351562zm0 0" fill="#fee175" data-original="#fee175" style=""/><path xmlns="http://www.w3.org/2000/svg" d="m276.917969 321.613281c0 44.871094-36.375 81.25-81.246094 81.25-44.875 0-81.25-36.378906-81.25-81.25 0-44.871093 36.375-81.25 81.25-81.25 44.871094 0 81.246094 36.378907 81.246094 81.25zm0 0" fill="#fcbc77" data-original="#fcbc77" style="" class=""/><path xmlns="http://www.w3.org/2000/svg" d="m243.214844 270.199219c2.550781 2.359375 4.894531 4.871093 7.015625 7.503906 19.339843 23.964844 20.671875 58.015625 3.269531 83.421875-1.910156 2.792969-4.042969 5.472656-6.410156 8.03125-7.246094 7.839844-15.871094 13.644531-25.167969 17.386719-6.21875 2.527343-12.75 4.109375-19.347656 4.757812-4.957031.496094-9.960938.449219-14.917969-.117187-14.273438-1.632813-28.171875-7.652344-39.527344-18.148438-.089844-.082031-.171875-.160156-.253906-.25-28.074219-26.207031-29.789062-70.140625-3.859375-98.457031.070313-.085937.152344-.175781.230469-.257813 10.503906-11.363281 23.890625-18.449218 38-21.1875 4.890625-.960937 9.878906-1.390624 14.855468-1.277343 6.640626.128906 13.265626 1.195312 19.660157 3.226562 9.5625 3.003907 18.613281 8.117188 26.453125 15.367188zm0 0" fill="#fee175" data-original="#fee175" style=""/><path xmlns="http://www.w3.org/2000/svg" d="m182.246094 252.882812 5.410156 138.300782c-14.273438-1.632813-28.171875-7.652344-39.523438-18.148438-.089843-.082031-.175781-.160156-.257812-.25l-3.855469-98.457031c.070313-.085937.152344-.175781.230469-.257813 10.503906-11.363281 23.886719-18.449218 37.996094-21.1875zm0 0" fill="#ffeeb8" data-original="#ffeeb8" style="" class=""/><path xmlns="http://www.w3.org/2000/svg" d="m216.765625 254.832031 5.15625 131.710938c-6.214844 2.523437-12.75 4.109375-19.347656 4.753906l-5.472657-139.691406c6.640626.128906 13.265626 1.195312 19.664063 3.226562zm0 0" fill="#ffeeb8" data-original="#ffeeb8" style="" class=""/><path xmlns="http://www.w3.org/2000/svg" d="m250.230469 277.703125c19.339843 23.964844 20.671875 58.015625 3.269531 83.421875zm0 0" fill="#ffeeb8" data-original="#ffeeb8" style="" class=""/><path xmlns="http://www.w3.org/2000/svg" d="m227.691406 356.132812c-11.070312 11.195313-25.761718 15.113282-31.921875 9.414063-3.273437-3.027344-5.417969-10.363281-2.035156-14.023437 3.738281-4.042969 12.445313-2.066407 20.285156-8.03125l-15.597656-14.421876c-11.558594 5.742188-25.316406 12.3125-37.636719.917969-12.230468-11.308593-9.734375-25.789062-1.742187-37.328125l-2.695313-2.492187c-1.347656-1.246094-1.175781-3.945313.78125-6.0625 1.695313-1.828125 4.636719-2.503907 5.984375-1.253907l2.40625 2.222657c5.710938-5.789063 17.667969-15.628907 24.3125-9.488281 2.597657 2.402343 6.292969 9.03125 2.375 13.269531-2.9375 3.175781-7.710937 2.15625-13.976562 7.972656l14.054687 12.996094c11.375-5.734375 25.335938-11.757813 38.335938.261719 11.9375 11.039062 12.039062 25.417968 3.449218 38.371093l2.792969 2.582031c1.347657 1.25.910157 4.234376-.78125 6.0625-1.960937 2.121094-4.636719 2.503907-5.984375 1.257813zm-43.59375-42.09375-11.457031-10.589843c-3.136719 5.132812-2.613281 9.007812-.304687 11.144531 2.792968 2.582031 6.839843 1.679688 11.761718-.554688zm22.800782 11.078126 12.898437 11.929687c2.257813-3.984375 2.832031-8.277344-.632813-11.480469-3.179687-2.941406-7.425781-2.402344-12.265624-.449218zm0 0" fill="#f2a85f" data-original="#f2a85f" style="" class=""/><path xmlns="http://www.w3.org/2000/svg" d="m313.636719 429.496094v31.511718c0 8.601563-6.96875 15.558594-15.558594 15.558594h-172.09375c-10.449219-6.175781-20.40625-13.058594-29.832031-20.605468v-26.464844c0-8.589844 6.957031-15.558594 15.558594-15.558594h186.367187c8.589844 0 15.558594 6.96875 15.558594 15.558594zm0 0" fill="#fcbc77" data-original="#fcbc77" style="" class=""/><path xmlns="http://www.w3.org/2000/svg" d="m299.46875 427.4375v35.628906c0 9.71875-6.0625 17.597656-13.53125 17.597656h-152.753906c-2.425782-1.328124-4.828125-2.695312-7.199219-4.097656-5.257813-3.101562-10.386719-6.394531-15.382813-9.851562-.1875-1.171875-.292968-2.394532-.292968-3.648438v-35.628906c0-9.71875 6.0625-17.597656 13.542968-17.597656h162.085938c7.46875 0 13.53125 7.878906 13.53125 17.597656zm0 0" fill="#fcbc77" data-original="#fcbc77" style="" class=""/><path xmlns="http://www.w3.org/2000/svg" d="m313.636719 429.492188v31.515624c0 8.59375-6.964844 15.5625-15.558594 15.5625h-148.070313c-8.585937 0-15.554687-6.96875-15.554687-15.5625v-31.515624c0-8.585938 6.96875-15.554688 15.554687-15.554688h148.066407c8.597656 0 15.5625 6.96875 15.5625 15.554688zm0 0" fill="#fee175" data-original="#fee175" style=""/><g xmlns="http://www.w3.org/2000/svg" fill="#fcbc77"><path d="m151.914062 420.1875h11.410157v48.367188h-11.410157zm0 0" fill="#fcbc77" data-original="#fcbc77" style="" class=""/><path d="m179.46875 420.1875h11.414062v48.367188h-11.414062zm0 0" fill="#fcbc77" data-original="#fcbc77" style="" class=""/><path d="m207.023438 420.1875h11.414062v48.367188h-11.414062zm0 0" fill="#fcbc77" data-original="#fcbc77" style="" class=""/><path d="m234.578125 420.1875h11.414063v48.367188h-11.414063zm0 0" fill="#fcbc77" data-original="#fcbc77" style="" class=""/></g><path xmlns="http://www.w3.org/2000/svg" d="m262.132812 420.1875h11.414063v48.367188h-11.414063zm0 0" fill="#ffeeb8" data-original="#ffeeb8" style="" class=""/><path xmlns="http://www.w3.org/2000/svg" d="m112.238281 420.1875h11.414063v48.367188h-11.414063zm0 0" fill="#fee175" data-original="#fee175" style=""/><path xmlns="http://www.w3.org/2000/svg" d="m289.6875 420.1875h11.414062v48.367188h-11.414062zm0 0" fill="#fcbc77" data-original="#fcbc77" style="" class=""/><path xmlns="http://www.w3.org/2000/svg" d="m446.890625 426.570312c-2.277344 2.558594-4.617187 5.066407-7.007813 7.523438-1.183593 1.222656-2.382812 2.433594-3.585937 3.613281-6.175781 6.15625-12.664063 11.964844-19.445313 17.441407-6.59375 5.339843-13.449218 10.355468-20.5625 15.003906l-149.148437-73.152344c-7.722656-3.785156-10.910156-13.105469-7.128906-20.828125l13.878906-28.292969c3.78125-7.710937 13.113281-10.898437 20.824219-7.105468l167.328125 82.066406c1.914062.9375 3.542969 2.214844 4.847656 3.730468zm0 0" fill="#fcbc77" data-original="#fcbc77" style="" class=""/><path xmlns="http://www.w3.org/2000/svg" d="m437.351562 435.566406-1.054687 2.140625c-6.175781 6.15625-12.664063 11.964844-19.445313 17.441407-6.59375 5.339843-13.449218 10.355468-20.5625 15.003906-1.339843.878906-2.675781 1.746094-4.035156 2.589844l-136.023437-66.726563c-6.707031-3.292969-8.683594-13.03125-4.398438-21.753906l15.691407-31.996094c4.277343-8.714844 13.179687-13.125 19.898437-9.832031l145.519531 71.386718c6.710938 3.292969 8.683594 13.03125 4.410156 21.746094zm0 0" fill="#fcbc77" data-original="#fcbc77" style="" class=""/><path xmlns="http://www.w3.org/2000/svg" d="m446.890625 426.570312c-2.277344 2.558594-4.617187 5.066407-7.007813 7.523438-7.230468 7.480469-14.921874 14.511719-23.03125 21.054688-6.59375 5.339843-13.449218 10.355468-20.5625 15.003906l-114.773437-56.289063c-7.699219-3.78125-10.886719-13.101562-7.105469-20.816406l13.878906-28.292969c3.78125-7.710937 13.101563-10.898437 20.8125-7.117187l132.941407 65.203125c1.914062.9375 3.542969 2.214844 4.847656 3.730468zm0 0" fill="#fee175" data-original="#fee175" style=""/><path xmlns="http://www.w3.org/2000/svg" d="m308.039062 364.085938 10.246094 5.027343-21.300781 43.425781-10.246094-5.027343zm0 0" fill="#fcbc77" data-original="#fcbc77" style="" class=""/><path xmlns="http://www.w3.org/2000/svg" d="m332.777344 376.21875 10.25 5.027344-21.304688 43.425781-10.246094-5.023437zm0 0" fill="#fcbc77" data-original="#fcbc77" style="" class=""/><path xmlns="http://www.w3.org/2000/svg" d="m357.515625 388.355469 10.25 5.027343-21.304687 43.425782-10.246094-5.027344zm0 0" fill="#fcbc77" data-original="#fcbc77" style="" class=""/><path xmlns="http://www.w3.org/2000/svg" d="m382.253906 400.488281 10.25 5.027344-21.304687 43.425781-10.246094-5.027344zm0 0" fill="#fcbc77" data-original="#fcbc77" style="" class=""/><path xmlns="http://www.w3.org/2000/svg" d="m406.996094 412.625 10.246094 5.027344-21.304688 43.425781-10.246094-5.027344zm0 0" fill="#ffeeb8" data-original="#ffeeb8" style="" class=""/><path xmlns="http://www.w3.org/2000/svg" d="m272.421875 346.613281 10.246094 5.027344-21.300781 43.425781-10.25-5.027344zm0 0" fill="#fee175" data-original="#fee175" style=""/><path xmlns="http://www.w3.org/2000/svg" d="m442.003906 429.777344-2.121094 4.316406c-7.230468 7.480469-14.921874 14.511719-23.03125 21.054688l14.910157-30.398438zm0 0" fill="#fcbc77" data-original="#fcbc77" style="" class=""/><path xmlns="http://www.w3.org/2000/svg" d="m394.972656 242.257812h-5.648437c-15.503907 0-28.074219-12.566406-28.074219-28.074218v-34.390625c0-15.503907 12.570312-28.074219 28.074219-28.074219h5.648437c15.507813 0 28.074219 12.570312 28.074219 28.074219v34.390625c0 15.507812-12.566406 28.074218-28.074219 28.074218zm0 0" fill="#ffffff" data-original="#ffffff" style=""/><path xmlns="http://www.w3.org/2000/svg" d="m392.148438 418.445312c-17.0625 0-30.894532-13.832031-30.894532-30.898437v-99.820313c0-17.0625 13.832032-30.894531 30.894532-30.894531 17.066406 0 30.898437 13.832031 30.898437 30.894531v99.820313c0 17.066406-13.832031 30.898437-30.898437 30.898437zm0 0" fill="#ffffff" data-original="#ffffff" style=""/><path xmlns="http://www.w3.org/2000/svg" d="m163.113281 282.847656 33.363281-8.445312c13.496094-3.414063 13.496094-22.589844 0-26.007813l-33.363281-8.445312c-4.777343-1.207031-8.503906-4.9375-9.710937-9.710938l-8.445313-33.363281c-3.417969-13.5-22.59375-13.5-26.011719 0l-8.441406 33.363281c-1.210937 4.773438-4.9375 8.503907-9.714844 9.710938l-33.363281 8.445312c-13.496093 3.417969-13.496093 22.59375 0 26.007813l33.363281 8.445312c4.777344 1.210938 8.503907 4.9375 9.714844 9.714844l8.441406 33.363281c3.417969 13.496094 22.59375 13.496094 26.011719 0l8.445313-33.363281c1.207031-4.777344 4.933594-8.503906 9.710937-9.714844zm0 0" fill="#ffffff" data-original="#ffffff" style=""/></g></svg>
