<?xml version="1.0"?>
<svg xmlns="http://www.w3.org/2000/svg" xmlns:xlink="http://www.w3.org/1999/xlink" xmlns:svgjs="http://svgjs.com/svgjs" version="1.1" width="512" height="512" x="0" y="0" viewBox="0 0 512 512" style="enable-background:new 0 0 512 512" xml:space="preserve" class=""><g><path xmlns="http://www.w3.org/2000/svg" d="m512 256c0 141.386719-114.613281 256-256 256-53.632812 0-103.414062-16.488281-144.539062-44.691406-14.597657-9.988282-28.097657-21.460938-40.292969-34.1875-4.191407-4.367188-8.222657-8.882813-12.089844-13.542969-2.839844-3.417969-5.601563-6.90625-8.273437-10.46875-31.914063-42.707031-50.804688-95.703125-50.804688-153.109375 0-141.386719 114.613281-256 256-256s256 114.613281 256 256zm0 0" fill="#66da98" data-original="#274b7b" style=""/><path xmlns="http://www.w3.org/2000/svg" d="m300.898438 380.738281v7.460938c0 6.355469-5.152344 11.503906-11.492188 11.503906h-46.183594l44.605469 11.957031c6.132813 1.640625 9.78125 7.941406 8.128906 14.082032l-1.933593 7.210937c-1.640626 6.132813-7.941407 9.769531-14.074219 8.128906l-44.605469-11.953125 39.988281 23.09375c5.496094 3.175782 7.386719 10.207032 4.210938 15.703125l-3.730469 6.46875c-3.175781 5.496094-10.210938 7.386719-15.714844 4.210938l-39.988281-23.09375 32.652344 32.652343c4.492187 4.496094 4.492187 11.777344 0 16.261719l-5.277344 5.277344c-.761719.761719-1.609375 1.398437-2.519531 1.898437-.082032.054688-.167969.105469-.25.148438h-.011719c-4.019531-.167969-8.035156-.441406-12.003906-.792969 0 0 0 0-.011719-.011719-.074219-.054687-.144531-.105468-.21875-.167968-.4375-.3125-.855469-.679688-1.253906-1.074219l-32.652344-32.644531 18.472656 31.996094c-14-2.144532-27.625-5.414063-40.78125-9.71875l-4.066406-7.054688 1.671875 6.261719c-75.316406-25.507813-134.90625-85.097657-160.402344-160.414063l6.261719 1.683594-7.042969-4.066406c-4.316406-13.15625-7.597656-26.789063-9.730469-40.792969l31.996094 18.472656-32.652344-32.652343c-.460937-.457032-.867187-.9375-1.246093-1.453126-.351563-3.980468-.625-7.992187-.792969-12.035156.523438-1.003906 1.203125-1.933594 2.039062-2.769531l5.277344-5.277344c4.492188-4.492187 11.773438-4.492187 16.269532 0l32.652343 32.652344-23.09375-39.988281c-3.175781-5.503906-1.285156-12.539063 4.210938-15.714844l6.46875-3.730469c5.496093-3.175781 12.527343-1.292969 15.703125 4.210938l23.09375 39.988281-11.953125-44.605469c-1.640625-6.132812 1.996093-12.433593 8.128906-14.085937l7.210937-1.921875c6.132813-1.652344 12.441407 1.996093 14.082032 8.128906l11.957031 44.597656v-46.175781c0-6.351562 5.148437-11.492188 11.492187-11.492188h7.472657c6.351562 0 11.492187 5.140626 11.492187 11.492188v46.175781l11.953125-44.597656c1.640625-6.132813 7.953125-9.78125 14.085938-8.128906l7.210937 1.921875c6.132813 1.652344 9.777344 7.953125 8.128906 14.085937l-11.945312 44.605469 23.082031-39.988281c3.175781-5.503907 10.210938-7.386719 15.714844-4.210938l6.457031 3.730469c5.507813 3.175781 7.390625 10.210938 4.210938 15.714844l-23.089844 39.988281 32.652344-32.652344c4.492187-4.492187 11.777344-4.492187 16.269531 0l5.277344 5.277344c4.492187 4.492187 4.492187 11.777344 0 16.257813l-32.652344 32.652343 39.988281-23.078125c5.503906-3.179687 12.539063-1.296875 15.714844 4.199219l3.730469 6.46875c3.175781 5.503906 1.285156 12.539063-4.210938 15.714844l-39.988281 23.082031 44.605469-11.953125c6.132812-1.640625 12.433593 2.003906 14.074219 8.136719l1.933593 7.210937c1.652344 6.132813-1.996093 12.433594-8.128906 14.085938l-44.605469 11.941406h46.183594c6.339844 0 11.492188 5.152344 11.492188 11.503906zm0 0" fill="#fcbc77" data-original="#fcbc77" style=""/><path xmlns="http://www.w3.org/2000/svg" d="m293.773438 384.46875c0 50.761719-22.746094 96.207031-58.609376 126.695312-.824218-.0625-1.640624-.136718-2.464843-.207031-4.972657-.453125-9.90625-1.035156-14.796875-1.777343-.292969-.042969-.574219-.085938-.867188-.125-14-2.144532-27.625-5.414063-40.78125-9.71875-.792968-.261719-1.597656-.523438-2.394531-.792969-75.316406-25.507813-134.90625-85.097657-160.402344-160.414063-.269531-.792968-.53125-1.589844-.78125-2.382812-4.316406-13.15625-7.597656-26.789063-9.730469-40.792969-.039062-.292969-.082031-.574219-.125-.867187-.742187-4.878907-1.324218-9.800782-1.777343-14.765626-.070313-.835937-.144531-1.660156-.207031-2.496093 30.488281-35.851563 75.941406-58.597657 126.695312-58.597657 91.8125 0 166.242188 74.429688 166.242188 166.242188zm0 0" fill="#fcbc77" data-original="#fcbc77" style=""/><path xmlns="http://www.w3.org/2000/svg" d="m281.527344 384.46875c0 51.285156-25.066406 96.71875-63.625 124.710938-.292969-.042969-.574219-.085938-.867188-.125-14-2.144532-27.625-5.414063-40.78125-9.71875-.792968-.261719-1.597656-.523438-2.394531-.792969-75.316406-25.507813-134.90625-85.097657-160.402344-160.414063-.269531-.792968-.53125-1.589844-.78125-2.382812-4.316406-13.15625-7.597656-26.789063-9.730469-40.792969-.039062-.292969-.082031-.574219-.125-.867187 27.992188-38.546876 73.425782-63.613282 124.710938-63.613282 85.042969 0 153.996094 68.941406 153.996094 153.996094zm0 0" fill="#fee175" data-original="#fee175" style=""/><path xmlns="http://www.w3.org/2000/svg" d="m256.050781 384.46875c0 51.628906-30.4375 96.140625-74.332031 116.589844-1.828125-.550782-3.648438-1.128906-5.464844-1.722656-.792968-.261719-1.597656-.523438-2.394531-.792969-6.152344-2.082031-12.203125-4.398438-18.128906-6.929688-60.769531-25.890625-109.472657-74.59375-135.34375-135.367187-2.539063-5.921875-4.847657-11.972656-6.929688-18.117188-.269531-.792968-.53125-1.589844-.78125-2.382812-.597656-1.816406-1.171875-3.636719-1.726562-5.476563 20.441406-43.894531 64.953125-74.320312 116.582031-74.320312 70.976562 0 128.519531 57.542969 128.519531 128.519531zm0 0" fill="#fcbc77" data-original="#fcbc77" style=""/><path xmlns="http://www.w3.org/2000/svg" d="m238.300781 384.480469c0 5.496093-.398437 10.917969-1.183593 16.207031-6.464844 44.125-38.953126 79.796875-81.386719 90.925781-60.769531-25.890625-109.472657-74.59375-135.34375-135.367187 12.421875-47.351563 55.398437-82.304688 106.589843-82.546875.175782-.019531.363282-.019531.554688-.019531 24.46875 0 47.082031 7.941406 65.410156 21.390624 6.363282 4.648438 12.222656 9.976563 17.4375 15.882813 6.980469 7.84375 12.851563 16.683594 17.367188 26.296875 6.769531 14.335938 10.554687 30.335938 10.554687 47.230469zm0 0" fill="#fee175" data-original="#fee175" style=""/><g xmlns="http://www.w3.org/2000/svg" fill="#ffeeb8"><path d="m192.941406 295.070312-129.558594 129.554688c-13.800781-15.746094-25.691406-33.195312-35.328124-52.003906l98.921874-98.921875c.175782-.019531.363282-.019531.554688-.019531 24.46875 0 47.082031 7.941406 65.410156 21.390624zm0 0" fill="#ffeeb8" data-original="#ffeeb8" style=""/><path d="m227.746094 337.25-124.320313 124.324219c-8.308593-6.164063-16.230469-12.832031-23.710937-19.957031l130.664062-130.664063c6.980469 7.84375 12.851563 16.683594 17.367188 26.296875zm0 0" fill="#ffeeb8" data-original="#ffeeb8" style=""/><path d="m237.117188 400.6875c-6.464844 44.125-38.953126 79.796875-81.386719 90.925781-2.214844-.941406-4.417969-1.921875-6.601563-2.933593zm0 0" fill="#ffeeb8" data-original="#ffeeb8" style=""/></g><path xmlns="http://www.w3.org/2000/svg" d="m159.355469 407.34375c-11.960938 0-16.539063 2.390625-16.757813 9.351562-.210937 8.484376-1.734375 21.753907-18.921875 21.753907-18.496093 0-20.011719-15.222657-20.011719-17.835938v-.867187h13.917969c5.226563 0 10.449219-4.785156 10.449219-11.535156 0-6.519532-5.222656-11.746094-10.449219-11.746094h-13.917969v-13.050782h13.917969c5.226563 0 10.449219-4.785156 10.449219-11.535156 0-6.519531-5.222656-11.746094-10.449219-11.746094h-13.917969v-1.085937c0-14.792969 6.960938-21.753906 19.789063-21.753906 18.277344 0 19.144531 14.136719 19.144531 19.582031 0 6.738281 4.578125 9.351562 16.757813 9.351562 12.183593 0 17.179687-2.613281 17.179687-15.222656 0-27.640625-23.707031-43.300781-54.386718-43.300781-28.933594 0-52.421876 13.925781-52.421876 51.34375v1.085937h-8.703124c-6.09375 0-10.230469 5.226563-10.230469 11.964844 0 6.75 4.136719 11.316406 10.230469 11.316406h8.703124v13.050782h-8.703124c-6.09375 0-10.230469 5.226562-10.230469 11.964844 0 .230468 0 .460937.011719.679687 2.671874 3.5625 5.433593 7.050781 8.273437 10.46875.628906.117187 1.273437.167969 1.945313.167969h8.703124v.867187c0 4.347657.480469 8.535157 1.441407 12.507813 12.195312 12.726562 25.695312 24.199218 40.292969 34.1875 3.363281.480468 6.925781.734375 10.6875.734375 30.679687 0 54.386718-16.75 54.386718-45.257813 0-12.828125-4.785156-15.441406-17.179687-15.441406zm0 0" fill="#f2a85f" data-original="#f2a85f" style=""/><path xmlns="http://www.w3.org/2000/svg" d="m394.949219 263.691406h-46.179688l44.605469-11.949218c6.136719-1.644532 9.777344-7.949219 8.132812-14.085938l-1.933593-7.210938c-1.644531-6.132812-7.949219-9.773437-14.082031-8.128906l-44.605469 11.949219 39.992187-23.089844c5.5-3.175781 7.382813-10.207031 4.207032-15.707031l-3.730469-6.464844c-3.175781-5.5-10.207031-7.386718-15.707031-4.210937l-39.992188 23.089843 32.652344-32.652343c4.492187-4.492188 4.492187-11.773438 0-16.261719l-5.277344-5.28125c-4.492188-4.488281-11.773438-4.488281-16.265625 0l-32.652344 32.65625 23.089844-39.992188c3.175781-5.5 1.289063-12.535156-4.207031-15.710937l-6.46875-3.730469c-5.5-3.175781-12.53125-1.289062-15.707032 4.207032l-23.089843 39.992187 11.953125-44.605469c1.644531-6.132812-1.996094-12.4375-8.132813-14.082031l-7.210937-1.929687c-6.132813-1.644532-12.4375 1.996093-14.082032 8.128906l-11.953124 44.605468v-46.179687c0-6.347656-5.144532-11.496094-11.496094-11.496094h-7.46875c-6.347656 0-11.496094 5.148438-11.496094 11.496094v46.179687l-11.953125-44.605468c-1.644531-6.132813-7.949219-9.773438-14.082031-8.128906l-7.210938 1.929687c-6.136718 1.644531-9.777344 7.949219-8.132812 14.082031l11.953125 44.605469-23.089844-39.992187c-3.175781-5.5-10.207031-7.382813-15.707031-4.207032l-6.46875 3.730469c-5.5 3.175781-7.382813 10.210937-4.207032 15.710937l23.089844 39.992188-32.652344-32.65625c-4.492187-4.488281-11.773437-4.488281-16.265624 0l-5.277344 5.28125c-4.492188 4.488281-4.492188 11.769531 0 16.261719l32.652344 32.652343-39.992188-23.089843c-5.5-3.175781-12.53125-1.289063-15.707031 4.210937l-3.730469 6.464844c-3.175781 5.5-1.292969 12.53125 4.207031 15.707031l39.992188 23.089844-44.605469-11.949219c-6.136719-1.644531-12.441406 1.996094-14.082031 8.128906l-1.933594 7.210938c-1.644531 6.136719 1.996094 12.441406 8.132813 14.082031l44.601562 11.953125h-46.179688c-6.347656 0-11.496093 5.148438-11.496093 11.5v7.464844c0 6.351562 5.148437 11.5 11.496093 11.5h46.179688l-44.605469 11.949219c-6.132812 1.644531-9.773437 7.949219-8.128906 14.085937l1.929687 7.210938c1.644532 6.132812 7.949219 9.773437 14.085938 8.128906l44.601562-11.949219-39.988281 23.089844c-5.503906 3.171875-7.386719 10.207031-4.210937 15.707031l3.734375 6.464844c3.175781 5.5 10.207031 7.382812 15.707031 4.207031l39.992188-23.085937-32.65625 32.652344c-4.488282 4.492187-4.488282 11.769531 0 16.261718l5.28125 5.277344c4.492187 4.492188 11.769531 4.492188 16.261718 0l32.652344-32.652344-23.089844 39.992188c-3.171875 5.5-1.289062 12.53125 4.210938 15.707031l6.464844 3.734375c5.5 3.175781 12.535156 1.289062 15.707031-4.210938l23.089843-39.988281-11.949218 44.601563c-1.644532 6.136718 1.996094 12.441406 8.128906 14.085937l7.210938 1.929688c6.136718 1.644531 12.441406-1.996094 14.085937-8.128907l11.949219-44.605468v46.175781c0 6.351563 5.148437 11.5 11.5 11.5h7.464844c6.351562 0 11.5-5.148437 11.5-11.5v-46.175781l11.953124 44.605468c1.640626 6.132813 7.949219 9.773438 14.082032 8.128907l7.210937-1.929688c6.132813-1.644531 9.773438-7.949219 8.128907-14.085937l-11.949219-44.601563 23.089843 39.988281c3.175782 5.5 10.207032 7.386719 15.707032 4.210938l6.464844-3.734375c5.5-3.175781 7.382812-10.207031 4.210937-15.707031l-23.089844-39.992188 32.652344 32.652344c4.492187 4.492188 11.773437 4.492188 16.261719 0l5.28125-5.277344c4.488281-4.492187 4.488281-11.769531 0-16.261718l-32.65625-32.652344 39.992187 23.085937c5.5 3.175781 12.535157 1.292969 15.707031-4.207031l3.734376-6.464844c3.175781-5.5 1.289062-12.535156-4.210938-15.707031l-39.988281-23.089844 44.601562 11.949219c6.136719 1.644531 12.441407-1.996094 14.085938-8.128906l1.929687-7.210938c1.644532-6.136718-1.996094-12.441406-8.128906-14.085937l-44.605469-11.949219h46.179688c6.347656 0 11.496093-5.148438 11.496093-11.5v-7.464844c.003907-6.351562-5.144531-11.5-11.496093-11.5zm0 0" fill="#fcbc77" data-original="#fcbc77" style=""/><path xmlns="http://www.w3.org/2000/svg" d="m399.320312 278.925781c0 91.8125-74.433593 166.242188-166.246093 166.242188-91.816407 0-166.246094-74.429688-166.246094-166.242188 0-91.816406 74.429687-166.246093 166.246094-166.246093 91.8125 0 166.246093 74.429687 166.246093 166.246093zm0 0" fill="#fcbc77" data-original="#fcbc77" style=""/><path xmlns="http://www.w3.org/2000/svg" d="m387.074219 278.925781c0 85.050781-68.949219 154-154 154s-154-68.949219-154-154c0-85.054687 68.949219-154.003906 154-154.003906s154 68.949219 154 154.003906zm0 0" fill="#fee175" data-original="#fee175" style=""/><path xmlns="http://www.w3.org/2000/svg" d="m361.601562 278.925781c0 70.980469-57.542968 128.527344-128.527343 128.527344s-128.527344-57.546875-128.527344-128.527344c0-70.984375 57.542969-128.53125 128.527344-128.53125s128.527343 57.546875 128.527343 128.53125zm0 0" fill="#fcbc77" data-original="#fcbc77" style=""/><path xmlns="http://www.w3.org/2000/svg" d="m343.851562 278.929688c0 5.5-.398437 10.917968-1.183593 16.210937-7.066407 48.199219-45.1875 86.316406-93.382813 93.382813-5.296875.785156-10.699218 1.183593-16.214844 1.183593-16.886718 0-32.890624-3.78125-47.21875-10.5625-9.613281-4.507812-18.46875-10.394531-26.308593-17.367187-5.898438-5.222656-11.21875-11.082032-15.882813-17.449219-13.433594-18.328125-21.367187-40.9375-21.367187-65.398437 0-.191407 0-.371094.011719-.566407.289062-60.75 49.480468-109.925781 110.214843-110.214843.179688-.011719.371094-.011719.550781-.011719 24.476563 0 47.085938 7.933593 65.414063 21.382812 6.367187 4.648438 12.222656 9.984375 17.4375 15.882813 6.984375 7.851562 12.855469 16.695312 17.367187 26.304687 6.78125 14.328125 10.5625 30.335938 10.5625 47.222657zm0 0" fill="#fee175" data-original="#fee175" style=""/><path xmlns="http://www.w3.org/2000/svg" d="m298.488281 189.519531-154.824219 154.808594c-13.4375-18.328125-21.371093-40.9375-21.371093-65.398437 0-.191407 0-.371094.015625-.566407l110.214844-110.214843c.175781-.011719.371093-.011719.546874-.011719 24.480469 0 47.085938 7.933593 65.417969 21.382812zm0 0" fill="#ffeeb8" data-original="#ffeeb8" style=""/><path xmlns="http://www.w3.org/2000/svg" d="m333.289062 231.707031-147.4375 147.4375c-9.613281-4.507812-18.46875-10.394531-26.308593-17.367187l156.378906-156.375c6.984375 7.851562 12.859375 16.691406 17.367187 26.304687zm0 0" fill="#ffeeb8" data-original="#ffeeb8" style=""/><path xmlns="http://www.w3.org/2000/svg" d="m342.667969 295.140625c-7.066407 48.199219-45.183594 86.316406-93.382813 93.382813zm0 0" fill="#ffeeb8" data-original="#ffeeb8" style=""/><path xmlns="http://www.w3.org/2000/svg" d="m223.066406 311.664062c0 2.609376 1.523438 17.839844 20.015625 17.839844 17.183594 0 18.707031-13.273437 18.925781-21.757812.214844-6.960938 4.785157-9.351563 16.75-9.351563 12.398438 0 17.183594 2.609375 17.183594 15.445313 0 28.496094-23.710937 45.25-54.386718 45.25-34.152344 0-52.425782-20.667969-52.425782-47.425782v-.871093h-8.703125c-6.09375 0-10.222656-4.566407-10.222656-11.3125 0-6.742188 4.132813-11.964844 10.222656-11.964844h8.703125v-13.050781h-8.703125c-6.09375 0-10.222656-4.570313-10.222656-11.3125 0-6.746094 4.132813-11.964844 10.222656-11.964844h8.703125v-1.089844c0-37.417968 23.496094-51.339844 52.425782-51.339844 30.675781 0 54.386718 15.664063 54.386718 43.289063 0 12.617187-5 15.230469-17.183594 15.230469-12.183593 0-16.75-2.613282-16.75-9.355469 0-5.4375-.871093-19.578125-19.144531-19.578125-12.835937 0-19.796875 6.960938-19.796875 21.753906v1.085938h13.921875c5.222657 0 10.441407 5.222656 10.441407 11.75 0 6.742187-5.21875 11.53125-10.441407 11.53125h-13.921875v13.050781h13.921875c5.222657 0 10.441407 5.222656 10.441407 11.75 0 6.742187-5.21875 11.527344-10.441407 11.527344h-13.921875zm0 0" fill="#f2a85f" data-original="#f2a85f" style=""/><path xmlns="http://www.w3.org/2000/svg" d="m500.496094 158.144531h-46.175782l44.605469-11.953125c6.132813-1.640625 9.773438-7.949218 8.128907-14.082031l-1.929688-7.210937c-1.644531-6.132813-7.949219-9.773438-14.085938-8.132813l-44.601562 11.953125 39.988281-23.089844c5.5-3.175781 7.386719-10.207031 4.210938-15.707031l-3.734375-6.464844c-3.175782-5.5-10.207032-7.382812-15.707032-4.207031l-39.992187 23.085938 32.652344-32.652344c4.492187-4.492188 4.492187-11.769532 0-16.261719l-5.277344-5.277344c-4.492187-4.492187-11.769531-4.492187-16.261719 0l-32.652344 32.652344 23.085938-39.992187c3.175781-5.5 1.292969-12.53125-4.207031-15.707032l-6.464844-3.734375c-5.5-3.175781-12.535156-1.289062-15.707031 4.210938l-23.09375 39.988281 11.953125-44.605469c1.644531-6.132812-1.996094-12.4375-8.132813-14.082031l-7.210937-1.929688c-6.132813-1.644531-12.4375 1.996094-14.082031 8.128907l-11.953126 44.605469v-46.179688c0-6.351562-5.148437-11.5-11.5-11.5h-7.464843c-6.351563 0-11.5 5.148438-11.5 11.5v46.179688l-11.949219-44.605469c-1.644531-6.136719-7.949219-9.777344-14.082031-8.132813l-7.210938 1.933594c-6.136719 1.644531-9.777343 7.949219-8.132812 14.082031l11.953125 44.605469-23.089844-39.992188c-3.175781-5.5-10.210938-7.382812-15.707031-4.207031l-6.46875 3.730469c-5.5 3.175781-7.382813 10.210938-4.207031 15.707031l23.089843 39.992188-32.65625-32.652344c-4.488281-4.492187-11.769531-4.492187-16.261719 0l-5.277343 5.277344c-4.492188 4.492187-4.492188 11.773437 0 16.265625l32.652343 32.652344-39.992187-23.089844c-5.5-3.175782-12.53125-1.289063-15.707031 4.207031l-3.734375 6.464844c-3.171875 5.503906-1.289063 12.535156 4.210937 15.710937l39.992188 23.089844-44.605469-11.953125c-6.136719-1.644531-12.441406 1.996094-14.082031 8.132813l-1.933594 7.210937c-1.644531 6.132813 1.996094 12.4375 8.132812 14.082031l44.601563 11.949219h-46.175781c-6.351563 0-11.5 5.148437-11.5 11.5v7.464844c0 6.351562 5.148437 11.5 11.5 11.5h46.175781l-44.605469 11.953125c-6.132812 1.644531-9.773437 7.949218-8.128906 14.082031l1.929688 7.210937c1.644531 6.132813 7.949218 9.773438 14.085937 8.132813l44.601563-11.953125-39.988282 23.089844c-5.5 3.175781-7.386718 10.207031-4.210937 15.707031l3.734375 6.464844c3.175781 5.5 10.207031 7.386719 15.707031 4.210937l39.992187-23.089844-32.652343 32.652344c-4.492188 4.492188-4.492188 11.773438 0 16.261719l5.277343 5.28125c4.492188 4.492187 11.769532 4.492187 16.261719 0l32.652344-32.652344-23.085937 39.988281c-3.175782 5.503907-1.292969 12.535157 4.207031 15.710938l6.464843 3.730469c5.5 3.175781 12.535157 1.292969 15.710938-4.207031l23.085938-39.992188-11.949219 44.605469c-1.644531 6.132812 1.996093 12.4375 8.128906 14.082031l7.210937 1.933594c6.136719 1.640625 12.441407-2 14.085938-8.132813l11.949219-44.605469v46.179688c0 6.351562 5.148437 11.5 11.5 11.5h7.464843c6.351563 0 11.5-5.148438 11.5-11.5v-46.179688l11.953126 44.605469c1.640624 6.132813 7.949218 9.773438 14.082031 8.132813l7.210937-1.933594c6.132813-1.644531 9.773438-7.949219 8.128906-14.082031l-11.949218-44.605469 23.089844 39.992188c3.175781 5.5 10.207031 7.382812 15.707031 4.207031l6.464843-3.730469c5.5-3.175781 7.386719-10.210938 4.210938-15.710938l-23.089844-39.988281 32.652344 32.652344c4.492188 4.492187 11.773438 4.492187 16.261719 0l5.28125-5.28125c4.488281-4.488281 4.488281-11.769531 0-16.261719l-32.652344-32.652344 39.988281 23.089844c5.5 3.175782 12.535156 1.289063 15.710938-4.210937l3.730468-6.464844c3.175782-5.5 1.289063-12.53125-4.207031-15.707031l-39.992187-23.089844 44.605468 11.953125c6.132813 1.640625 12.4375-2 14.082032-8.132813l1.929687-7.210937c1.644531-6.132813-1.996093-12.4375-8.128906-14.082031l-44.605469-11.953125h46.179688c6.347656 0 11.496094-5.148438 11.496094-11.5v-7.464844c.003906-6.347656-5.144532-11.496094-11.496094-11.496094zm0 0" fill="#fcbc77" data-original="#fcbc77" style=""/><path xmlns="http://www.w3.org/2000/svg" d="m504.867188 173.375c0 91.816406-74.429688 166.246094-166.246094 166.246094s-166.246094-74.429688-166.246094-166.246094c0-91.8125 74.429688-166.242188 166.246094-166.242188s166.246094 74.429688 166.246094 166.242188zm0 0" fill="#fcbc77" data-original="#fcbc77" style=""/><path xmlns="http://www.w3.org/2000/svg" d="m492.621094 173.375c0 85.054688-68.949219 154.003906-154 154.003906-85.050782 0-154-68.949218-154-154.003906 0-85.050781 68.949218-154 154-154 85.050781 0 154 68.949219 154 154zm0 0" fill="#fee175" data-original="#fee175" style=""/><path xmlns="http://www.w3.org/2000/svg" d="m467.148438 173.375c0 70.984375-57.542969 128.53125-128.527344 128.53125s-128.527344-57.546875-128.527344-128.53125c0-70.980469 57.542969-128.527344 128.527344-128.527344s128.527344 57.546875 128.527344 128.527344zm0 0" fill="#fcbc77" data-original="#fcbc77" style=""/><path xmlns="http://www.w3.org/2000/svg" d="m449.398438 173.382812c0 5.5-.398438 10.917969-1.183594 16.210938-7.066406 48.199219-45.183594 86.316406-93.382813 93.382812-5.292969.785157-10.699219 1.183594-16.210937 1.183594-16.886719 0-32.894532-3.78125-47.222656-10.5625-9.613282-4.507812-18.46875-10.394531-26.304688-17.367187-5.902344-5.222657-11.222656-11.082031-15.882812-17.449219-13.4375-18.328125-21.371094-40.9375-21.371094-65.398438 0-.191406 0-.371093.015625-.566406.289062-60.75 49.476562-109.925781 110.214843-110.214844.179688-.011718.371094-.011718.546876-.011718 24.480468 0 47.085937 7.933594 65.414062 21.382812 6.367188 4.648438 12.226562 9.984375 17.4375 15.882813 6.984375 7.851562 12.859375 16.695312 17.367188 26.304687 6.78125 14.328125 10.5625 30.335938 10.5625 47.222656zm0 0" fill="#fee175" data-original="#fee175" style=""/><path xmlns="http://www.w3.org/2000/svg" d="m404.035156 83.972656-154.824218 154.808594c-13.4375-18.332031-21.371094-40.9375-21.371094-65.398438 0-.195312 0-.371093.015625-.566406l110.214843-110.214844c.179688-.011718.371094-.011718.550782-.011718 24.476562 0 47.082031 7.933594 65.414062 21.382812zm0 0" fill="#ffeeb8" data-original="#ffeeb8" style=""/><path xmlns="http://www.w3.org/2000/svg" d="m438.839844 126.160156-147.441406 147.4375c-9.613282-4.507812-18.46875-10.394531-26.304688-17.367187l156.375-156.375c6.988281 7.851562 12.859375 16.691406 17.371094 26.304687zm0 0" fill="#ffeeb8" data-original="#ffeeb8" style=""/><path xmlns="http://www.w3.org/2000/svg" d="m448.214844 189.59375c-7.066406 48.199219-45.183594 86.316406-93.382813 93.382812zm0 0" fill="#ffeeb8" data-original="#ffeeb8" style=""/><path xmlns="http://www.w3.org/2000/svg" d="m328.613281 206.117188c0 2.609374 1.523438 17.835937 20.015625 17.835937 17.1875 0 18.707032-13.269531 18.925782-21.753906.21875-6.960938 4.785156-9.351563 16.75-9.351563 12.398437 0 17.1875 2.609375 17.1875 15.445313 0 28.496093-23.714844 45.25-54.386719 45.25-34.15625 0-52.429688-20.667969-52.429688-47.425781v-.871094h-8.703125c-6.089844 0-10.222656-4.566406-10.222656-11.3125 0-6.742188 4.132812-11.964844 10.222656-11.964844h8.703125v-13.050781h-8.703125c-6.089844 0-10.222656-4.570313-10.222656-11.3125 0-6.746094 4.132812-11.964844 10.222656-11.964844h8.703125v-1.089844c0-37.417969 23.496094-51.339843 52.429688-51.339843 30.671875 0 54.386719 15.664062 54.386719 43.289062 0 12.617188-5.003907 15.230469-17.1875 15.230469-12.183594 0-16.75-2.613281-16.75-9.355469 0-5.4375-.871094-19.578125-19.144532-19.578125-12.835937 0-19.796875 6.960937-19.796875 21.753906v1.085938h13.921875c5.222656 0 10.441406 5.222656 10.441406 11.75 0 6.742187-5.21875 11.53125-10.441406 11.53125h-13.921875v13.050781h13.921875c5.222656 0 10.441406 5.21875 10.441406 11.746094 0 6.746094-5.21875 11.53125-10.441406 11.53125h-13.921875zm0 0" fill="#f2a85f" data-original="#f2a85f" style=""/><path xmlns="http://www.w3.org/2000/svg" d="m387.097656 382.777344 33.367188-8.445313c13.496094-3.417969 13.496094-22.59375 0-26.007812l-33.367188-8.445313c-4.773437-1.210937-8.503906-4.9375-9.710937-9.714844l-8.445313-33.363281c-3.417968-13.496093-22.589844-13.496093-26.007812 0l-8.445313 33.363281c-1.207031 4.777344-4.9375 8.507813-9.710937 9.714844l-33.367188 8.445313c-13.496094 3.414062-13.496094 22.589843 0 26.007812l33.367188 8.445313c4.773437 1.207031 8.503906 4.9375 9.710937 9.710937l8.445313 33.363281c3.414062 13.5 22.589844 13.5 26.007812 0l8.445313-33.363281c1.210937-4.773437 4.9375-8.503906 9.710937-9.710937zm0 0" fill="#f1f4fe" data-original="#f1f4fe" style=""/></g></svg>
