<?xml version="1.0"?>
<svg xmlns="http://www.w3.org/2000/svg" xmlns:xlink="http://www.w3.org/1999/xlink" xmlns:svgjs="http://svgjs.com/svgjs" version="1.1" width="512" height="512" x="0" y="0" viewBox="0 0 512 512" style="enable-background:new 0 0 512 512" xml:space="preserve" class=""><g><g xmlns="http://www.w3.org/2000/svg"><g><g><path d="m239.2 304.36-7.12 20.69-186.96 186.95-22.03-23.2 91.187-125.46 95.202-60.929 18.845-8.948z" fill="#4894ff" data-original="#4894ff" style=""/><path d="m216.588 281.71-7.109 20.701-186.389 186.389-23.09-24.3 185.8-185.81 19.21-8.57z" fill="#6aa8ff" data-original="#6aa8ff" style=""/></g><g><g><path d="m314.528 214.712-5.078 9.818-20.39 20.37-12.419 5.896-4.526-4.526 5.911-12.406.522-16.412 18.612-2.722 13.028-4.598z" fill="#4894ff" data-original="#4894ff" style=""/><path d="m295.512 198.597-9.172 2.733-20.422 20.412-6.105 13.589 6.91 6.9 11.303-8.367 19.134-19.134 3.523-11.665z" fill="#6aa8ff" data-original="#6aa8ff" style=""/></g><g><g><path d="m509.23 107.83-106.6 106.47c-25.3 25.31-64.2 28.72-93.18 10.23-4.35-2.77-8.47-6.04-12.29-9.8l46.734-69.416 113.606-90.924 10.67 10.97-71.6 71.6 20.56 20.56 71.24-71.25z" fill="#b5b8b8" data-original="#cee1e4" style="" class=""/></g><path d="m457.5 54.39-160.34 160.34c-.15-.14-.29-.28-.44-.43-4.01-4.01-7.47-8.37-10.38-12.97-18.32-28.94-14.86-67.7 10.38-92.94l108.21-108.39 20.92 21.51-72.36 72.37 21.87 21.87 71.89-71.9z" fill="#d4d7d8" data-original="#f1f6f7" style="" class=""/></g></g></g><g><g><path d="m488.95 488.83-20.48 23.17-214.21-208.83-5.959-15.405 13.508-13.502 16.971 4.397 87.361 59.34z" fill="#6aa8ff" data-original="#6aa8ff" style=""/><path d="m512 462.77-23.05 26.06-210.17-210.17-5.564-13.413 13.985-13.991 13.577 5.394z" fill="#4894ff" data-original="#4894ff" style=""/></g><g><path d="m278.78 278.66-24.52 24.51-22.18 21.88-46.28-46.36-148.77-149.04c-28.57-28.57-33.39-72.91-13.34-106.08l153.225 121.744z" fill="#d4d7d8" data-original="#f1f6f7" style="" class=""/><path d="m300.78 256.65-.1.1-21.9 21.91-12.25-12.25-242.84-242.84c3.42-5.67 7.57-11.02 12.46-15.91l8.34-7.66 233 233.33z" fill="#b5b8b8" data-original="#cee1e4" style="" class=""/></g></g></g></g></svg>
